<svg width="634" height="565" viewBox="0 0 634 565" fill="none" xmlns="http://www.w3.org/2000/svg">
<path d="M74.9272 265.704H85.9545V305.061H74.9272H74.7201L74.5736 305.208L68.81 310.973L68.6636 311.12V311.327V316.885L63.1928 322.357H51.8727H51.6655L51.5191 322.504L46.609 327.415V322.857V322.65L46.4626 322.504L40.8454 316.885V305.561V305.354L40.699 305.208L35.0818 299.589V276.735V276.528L34.9354 276.381L29.3181 270.763V259.939H34.3746L39.9918 265.558L40.1382 265.704H40.3454H51.8727H52.0798L52.2263 265.558L57.8434 259.939H68.9564L74.5736 265.558L74.7201 265.704H74.9272Z" stroke="#00EE5F" stroke-opacity="0.03"/>
<path d="M52.3728 340.153V339.946L52.2264 339.8L46.6091 334.181V328.83L52.0799 323.357H63.1929L68.6637 328.83V351.477L57.6364 362.507L52.3728 357.242V340.153Z" stroke="#00EE5F" stroke-opacity="0.03"/>
<path d="M103.745 306.269L114.919 317.446L115.273 317.799L115.626 317.446L121.036 312.034L126.3 317.299V328.623V328.83L126.446 328.976L131.857 334.388L126.8 339.446L121.39 334.035L121.036 333.681L120.683 334.035L115.065 339.653H98.4817V334.388V334.181L98.3353 334.035L86.8081 322.504L86.6616 322.357H86.4544H80.6908H80.4837L80.3372 322.504L74.72 328.123H69.3707L64.1069 322.857L69.5171 317.446L69.6635 317.299V317.092V311.534L75.1343 306.062H86.2473L91.8645 311.68L92.0109 311.827H92.2181H97.9817H98.1889L98.3353 311.68L103.745 306.269Z" stroke="#00EE5F" stroke-opacity="0.03"/>
<path d="M97.4817 345.919V346.126L97.6281 346.272L103.245 351.891V357.449V357.656L103.392 357.803L109.009 363.422V368.773L103.745 374.038L86.8081 357.096L86.6616 356.949H86.4545H75.1344L69.6636 351.477V329.123H74.9272H75.1344L75.2808 328.976L80.898 323.357H86.2473L97.4817 334.595V345.919Z" stroke="#00EE5F" stroke-opacity="0.03"/>
<path d="M120.536 363.214V368.48H110.009V363.214V363.007L109.863 362.861L104.245 357.242V351.684V351.477L104.099 351.33L98.4817 345.711V340.653H115.273H115.48L115.626 340.507L121.036 335.095L126.446 340.507L126.8 340.86L127.153 340.507L132.564 335.095L137.62 340.153L132.21 345.565L131.856 345.918L132.21 346.272L137.62 351.684L132.356 356.949H126.8H126.593L126.446 357.095L120.683 362.861L120.536 363.007V363.214Z" stroke="#00EE5F" stroke-opacity="0.03"/>
<path d="M69.1635 352.391L74.5735 357.802L74.72 357.949H74.9271H86.2473L103.038 374.745L97.6281 380.157L97.4817 380.303V380.51V391.834L92.2181 397.099L86.808 391.687L86.6616 391.541H86.4544H75.1343L69.5171 385.922L69.1635 385.568L68.8099 385.922L63.1927 391.541H58.1362V363.421L69.1635 352.391Z" stroke="#00EE5F" stroke-opacity="0.03"/>
<path d="M143.737 374.391L143.591 374.538V374.745V380.01H127.007L121.536 374.538V368.98V363.421L127.007 357.949H132.564H132.771L132.917 357.802L138.681 352.037L139.034 351.684L138.681 351.33L133.271 345.918L138.681 340.507L144.091 335.095L149.501 340.507L149.647 340.653H149.855H160.882V363.007L155.411 368.48H149.855H149.647L149.501 368.626L143.737 374.391Z" stroke="#00EE5F" stroke-opacity="0.03"/>
<path d="M143.737 334.034L138.327 339.446L132.917 334.034L127.3 328.416V317.092V311.534L132.771 306.061H138.327H138.534L138.681 305.915L150.062 294.531H155.411L161.028 300.15L161.174 300.296H161.382H166.645V305.561V305.768L166.792 305.915L172.409 311.534V322.65L166.792 328.269L166.645 328.416V328.623V334.181L161.174 339.653H150.062L144.444 334.034L144.091 333.681L143.737 334.034Z" stroke="#00EE5F" stroke-opacity="0.03"/>
<path d="M126.3 311.327V315.885L121.39 310.973L121.036 310.62L120.683 310.973L115.273 316.385L104.099 305.208L103.746 304.854L103.392 305.208L97.7747 310.827H92.4254L86.9546 305.355V265.412L92.4254 259.939H97.9819H98.189L98.3355 259.793L103.746 254.381L109.009 259.646V270.97V271.177L109.156 271.323L114.919 277.089L115.066 277.235H115.273H120.536V282.5V282.707L120.683 282.854L126.3 288.473V294.031V294.238L126.446 294.384L132.064 300.003V305.355L126.446 310.973L126.3 311.12V311.327Z" stroke="#00EE5F" stroke-opacity="0.03"/>
<path d="M154.929 236.742L160.664 242.154L155.265 247.555L155.118 247.701V247.909V253.174H144.091H143.884L143.737 253.32L126.593 270.47H121.036H120.536V270.97V276.235H115.48L110.009 270.763V259.646L115.626 254.027L115.773 253.881V253.674V242.35L121.243 236.878H132.564H132.771L132.917 236.731L144.298 225.347H149.855H150.062L150.208 225.201L155.618 219.789L160.882 225.054V230.397L154.929 236.014L154.544 236.378L154.929 236.742Z" stroke="#00EE5F" stroke-opacity="0.03"/>
<path d="M161.028 276.382L160.882 276.528V276.735V288.059L155.411 293.531H149.855H149.647L149.501 293.677L138.12 305.062H133.064V299.796V299.589L132.917 299.443L127.3 293.824V288.266V288.059L127.154 287.912L121.536 282.293V276.735V271.47H126.8H127.007L127.154 271.323L144.298 254.174H155.411L166.645 265.412V270.763L161.028 276.382Z" stroke="#00EE5F" stroke-opacity="0.03"/>
<path d="M184.083 310.973L183.936 311.12V311.327V322.357H173.409V311.327V311.12L173.263 310.973L167.645 305.354V299.796V299.296H167.145H161.589L156.325 294.031L161.735 288.619L161.882 288.473V288.266V276.942L167.353 271.47H178.466L184.083 277.089L184.229 277.235H184.436H201.727H206.991V282.5V282.707L207.137 282.854L212.755 288.473V293.531H207.491H207.284L207.137 293.677L201.52 299.296H195.964H195.756L195.61 299.443L184.083 310.973Z" stroke="#00EE5F" stroke-opacity="0.03"/>
<path d="M202.081 322.504L201.934 322.357H201.727H184.936V311.534L196.171 300.296H201.727H201.934L202.081 300.15L207.698 294.531H213.254H218.811L224.282 300.003V322.357H219.018H218.811L218.664 322.504L213.047 328.123H207.698L202.081 322.504Z" stroke="#00EE5F" stroke-opacity="0.03"/>
<path d="M178.673 270.469H167.645V265.204V264.997L167.499 264.851L156.118 253.466V248.115L161.589 242.643H167.145H167.353L167.499 242.496L173.116 236.878H178.673H179.173V236.378V231.112H184.229L189.846 236.731L189.993 236.878H190.2H195.464V242.143V242.643H195.964H201.227V247.908V248.408H201.727H212.755V253.674V254.174H213.255H218.518V259.232L207.137 270.616L206.991 270.762V270.969V276.235H184.643L179.026 270.616L178.88 270.469H178.673Z" stroke="#00EE5F" stroke-opacity="0.03"/>
<path d="M184.083 196.374L184.229 196.521H184.436H201.227V230.405L195.756 235.878H190.407L184.79 230.259L184.644 230.113H184.436H179.173V224.847V224.64L179.026 224.494L173.263 218.728L173.116 218.582H172.909H167.353L162.089 213.317L167.499 207.905L167.645 207.758V207.551V196.228L173.116 190.755H178.466L184.083 196.374Z" stroke="#00EE5F" stroke-opacity="0.03"/>
<path d="M230.545 184.99H235.809V195.813L230.192 201.432L230.045 201.579V201.786V207.344L224.428 212.963L224.282 213.109V213.316V218.875L213.047 230.112H202.227V196.02V190.755H207.491H207.698L207.845 190.609L213.608 184.843L213.962 184.49L213.608 184.136L207.991 178.517V173.166L213.462 167.694H218.811L224.282 173.166V178.724V178.932L224.428 179.078L230.192 184.843L230.338 184.99H230.545Z" stroke="#00EE5F" stroke-opacity="0.03"/>
<path d="M195.963 150.398H196.171L196.317 150.252L201.727 144.84L212.754 155.87V166.987L207.137 172.606L206.991 172.752V172.959V178.725V178.932L207.137 179.078L212.547 184.49L207.284 189.755H201.727H201.227V190.255V195.521H184.643L179.026 189.902L178.88 189.755H178.673H173.409V167.401L179.026 161.782L179.173 161.636V161.429V155.87L184.643 150.398H195.963Z" stroke="#00EE5F" stroke-opacity="0.03"/>
<path d="M218.665 149.544L213.255 154.956L202.434 144.133L207.845 138.721L207.991 138.574V138.367V132.809L213.462 127.337H236.309H236.809V126.837V121.279L242.28 115.806H276.447L281.918 121.279V132.602V132.809L282.065 132.956L287.682 138.574V143.633H270.891H265.127H264.92L264.774 143.779L259.156 149.398H219.018H218.811L218.665 149.544Z" stroke="#00EE5F" stroke-opacity="0.03"/>
<path d="M258.864 103.775V114.806H248.044L242.426 109.187L242.28 109.041H242.073H224.989L219.725 103.775L225.136 98.3636L225.282 98.2172V98.0101V86.6866L230.899 81.0677L231.046 80.9213V80.7142V69.6836H242.073H242.28L242.426 69.5371L259.571 52.3877H270.684L276.301 58.0065L276.448 58.153H276.655H287.682V63.2112L276.301 74.5954L276.155 74.7419V74.9489V86.4795V86.6866L276.301 86.833L281.711 92.2448L276.448 97.5101H265.127H264.92L264.774 97.6566L259.01 103.422L258.864 103.568V103.775Z" stroke="#00EE5F" stroke-opacity="0.03"/>
<path d="M322.264 98.2175V109.041H317H316.793L316.647 109.188L311.236 114.599L305.826 109.188L305.68 109.041H305.473H288.182H287.682V109.541V115.099L282.418 120.364L277.008 114.953L276.862 114.806H276.655H259.864V103.983L265.335 98.5104H276.655H276.862L277.008 98.3639L282.625 92.7451H316.793L322.264 98.2175Z" stroke="#00EE5F" stroke-opacity="0.03"/>
<path d="M282.772 155.31L282.625 155.163H282.418H276.862L271.391 149.691V144.632H288.182H288.389L288.535 144.486L294.153 138.867H328.32L345.318 155.87V166.694H340.055H339.847L339.701 166.84L333.937 172.606L333.791 172.752V172.959V183.99H305.68L300.209 178.517V172.959V172.752L300.063 172.606L294.299 166.84L294.153 166.694H293.945H288.682V161.428V161.221L288.535 161.075L282.772 155.31Z" stroke="#00EE5F" stroke-opacity="0.03"/>
<path d="M333.791 142.925L328.881 138.014L328.734 137.867H328.527H293.945H293.738L293.592 138.014L288.682 142.925V138.367V138.16L288.535 138.014L282.918 132.395V121.278L288.535 115.66L288.682 115.513V115.306V110.041H305.266L310.883 115.66L311.236 116.013L311.59 115.66L317.207 110.041H322.764H334.291H334.498L334.645 109.894L340.055 104.483L345.111 109.541L339.701 114.952L339.555 115.099V115.306V132.395L333.937 138.014L333.791 138.16V138.367V142.925Z" stroke="#00EE5F" stroke-opacity="0.03"/>
<path d="M339.701 91.8913L339.555 92.0378V92.2448V103.568L334.084 109.041H323.264V98.0102V97.8031L323.117 97.6567L317.354 91.8913L317.207 91.7448H317H282.625L277.155 86.2725V75.156L288.535 63.7718L288.682 63.6254V63.4183V58.153H293.945H305.473H305.68L305.826 58.0065L311.236 52.5949L316.5 57.8601V69.1836V69.6836H317H322.556L333.937 81.0677L334.084 81.2142H334.291H345.318V86.2725L339.701 91.8913Z" stroke="#00EE5F" stroke-opacity="0.03"/>
<path d="M356.639 69.1837L345.611 80.2143H334.498L323.117 68.8302L322.971 68.6837H322.764H317.5V57.653V57.446L317.354 57.2995L311.59 51.5342L311.236 51.1805L310.883 51.5342L305.266 57.153H294.446V46.3295L299.916 40.8571H305.473H305.68L305.826 40.7106L311.59 34.9453L311.736 34.7989V34.5918V29.0336L322.971 17.7959H333.791V23.0612V23.2683L333.937 23.4147L339.701 29.18L340.055 29.5337L340.408 29.18L346.025 23.5612H351.082V34.3848L345.465 40.0036L345.318 40.1501V40.3571V51.8877V52.0948L345.465 52.2412L351.082 57.8601V63.4184V63.6254L351.228 63.7719L356.639 69.1837Z" stroke="#00EE5F" stroke-opacity="0.03"/>
<path d="M351.582 183.99H351.082V184.49V190.048L345.818 195.313L334.791 184.283V173.166L340.262 167.694H345.818H346.318V167.194V155.87L357.553 144.632H368.873H369.08L369.226 144.486L374.844 138.867H380.4H391.427V149.691L380.047 161.075L379.693 161.428L380.047 161.782L385.664 167.401V172.459H380.4H380.193L380.047 172.606L374.429 178.224H368.873H368.666L368.519 178.371L362.902 183.99H351.582Z" stroke="#00EE5F" stroke-opacity="0.03"/>
<path d="M380.4 189.755H380.193L380.046 189.902L374.429 195.52H369.08L363.609 190.048V184.697L369.08 179.224H374.636H374.844L374.99 179.078L380.607 173.459H386.164H386.664V172.959V167.194V166.987L386.517 166.84L381.107 161.429L392.134 150.398H408.718V155.663V155.87L408.865 156.017L414.482 161.636V172.959V173.166L414.628 173.313L420.246 178.932V184.283L414.775 189.755H380.4Z" stroke="#00EE5F" stroke-opacity="0.03"/>
<path d="M415.336 213.67L415.482 213.523V213.316V190.462L420.953 184.99H443.3V190.255V190.462L443.446 190.609L449.21 196.374L449.357 196.52H449.564H455.12L460.591 201.993V207.344L454.974 212.963L454.827 213.109V213.316V224.347H449.771L444.154 218.728L444.007 218.582H443.8H426.509H426.302L426.156 218.728L414.775 230.112H409.718V219.289L415.336 213.67Z" stroke="#00EE5F" stroke-opacity="0.03"/>
<path d="M467.208 218.728L467.062 218.582H466.855H455.827V213.523L461.445 207.904L461.591 207.758V207.551V201.786V201.579L461.445 201.432L455.681 195.667L455.534 195.52H455.327H449.771L444.3 190.048V184.99H461.091H461.298L461.445 184.843L467.208 179.078L467.355 178.932V178.724V173.166L472.825 167.694H484.145H495.173V172.752L489.555 178.371L489.409 178.517V178.724V184.283L483.792 189.902L483.438 190.255L483.792 190.609L495.173 201.993V207.344L489.555 212.963L489.409 213.109V213.316V218.875L483.938 224.347H472.825L467.208 218.728Z" stroke="#00EE5F" stroke-opacity="0.03"/>
<path d="M512.964 207.051H512.757L512.61 207.197L506.993 212.816H501.644L496.173 207.344V201.786V201.579L496.026 201.432L484.853 190.255L490.263 184.843L490.409 184.697V184.49V178.932L496.026 173.313L496.173 173.166V172.959V167.694H501.229L506.846 173.313L506.993 173.459H507.2H512.757L518.374 179.078L518.52 179.224H518.727H529.755V190.048L524.137 195.667L523.991 195.813V196.02V201.786V202.286H524.491H529.048L524.284 207.051H512.964Z" stroke="#00EE5F" stroke-opacity="0.03"/>
<path d="M483.646 161.636V166.694H472.618H472.411L472.265 166.841L466.501 172.606L466.355 172.752V172.959V178.518L460.884 183.99H443.8H421.246V178.725V178.518L421.099 178.371L415.482 172.752V161.636L426.716 150.398H432.273H432.48L432.626 150.252L438.244 144.633H449.357L454.974 150.252L455.12 150.398H455.327H460.884L466.501 156.017L466.648 156.163H466.855H478.175L483.646 161.636Z" stroke="#00EE5F" stroke-opacity="0.03"/>
<path d="M501.083 161.075L500.936 161.221V161.428V166.694H484.645V161.428V161.221L484.499 161.075L478.882 155.456V138.574L484.353 133.102H489.909H490.116L490.263 132.955L501.643 121.571H512.756L518.227 127.044V138.16L512.61 143.779L512.464 143.925V144.133V149.398H507.2H506.7V149.898V155.456L501.083 161.075Z" stroke="#00EE5F" stroke-opacity="0.03"/>
<path d="M506.7 115.306V115.513L506.846 115.659L511.757 120.571H501.436H501.229L501.083 120.718L489.702 132.102H484.146H483.938L483.792 132.248L478.028 138.014L477.882 138.16V138.367V155.163H467.062L461.445 149.544L461.298 149.398H461.091H455.534L450.064 143.925V126.836V126.629L449.917 126.483L444.3 120.864V109.748L449.771 104.275H472.618H472.825L472.972 104.129L484.499 92.5982L484.646 92.4517V92.2446V86.9793H495.673H495.88L496.026 86.8328L501.79 81.0675L507.407 75.4487H512.464V97.8029L506.846 103.422L506.7 103.568V103.775V115.306Z" stroke="#00EE5F" stroke-opacity="0.03"/>
<path d="M398.191 116.514L402.955 121.279V126.837V127.044L403.101 127.19L408.865 132.956L409.011 133.102H409.218H414.482V138.367V139.575L415.335 138.721L420.953 133.102H432.273H432.773V132.602V127.044L438.243 121.571H443.593L449.064 127.044V143.633H438.036H437.829L437.683 143.779L432.066 149.398H426.509H426.302L426.155 149.544L414.982 160.721L409.718 155.456V149.898V149.398H409.218H392.427V138.574L398.044 132.956L398.191 132.809V132.602V116.514Z" stroke="#00EE5F" stroke-opacity="0.03"/>
<path d="M437.683 109.894L437.829 110.041H438.036H443.3V120.571H438.036H437.829L437.683 120.718L431.919 126.483L431.773 126.63V126.837V132.102H420.745H420.538L420.392 132.249L415.482 137.16V132.602V132.102H414.982H409.425L403.954 126.63V121.071V120.864L403.808 120.718L398.044 114.953L387.37 104.276H391.927H392.134L392.281 104.129L403.662 92.745H409.218H409.425L409.572 92.5985L420.745 81.4216L431.773 92.452V103.776V103.983L431.919 104.129L437.683 109.894Z" stroke="#00EE5F" stroke-opacity="0.03"/>
<path d="M374.636 115.806H374.844L374.99 115.66L386.164 104.483L397.191 115.513V132.395L391.72 137.867H374.636H374.429L374.283 138.014L368.666 143.633H357.346H357.138L356.992 143.779L345.818 154.956L334.791 143.925V138.574L340.408 132.955L340.555 132.809V132.602V121.571H351.582H351.789L351.936 121.425L357.553 115.806H374.636Z" stroke="#00EE5F" stroke-opacity="0.03"/>
<path d="M351.375 120.571H340.555V115.513L346.172 109.894L346.525 109.541L346.172 109.187L340.555 103.568V92.4517L346.172 86.8329L346.318 86.6864V86.4794V80.9211L357.553 69.6834H386.164H386.371L386.517 69.5369L392.135 63.9181H397.691H397.898L398.045 63.7716L403.662 58.1528H409.011L414.628 63.7716L414.775 63.9181H414.982H420.246V80.507L409.011 91.7447H403.455H403.248L403.101 91.8912L391.72 103.275H386.164H385.957L385.81 103.422L374.429 114.806H357.346H357.138L356.992 114.952L351.375 120.571Z" stroke="#00EE5F" stroke-opacity="0.03"/>
<path d="M495.173 74.9489V75.156L495.319 75.3024L500.729 80.7142L495.466 85.9795H484.146H483.646V86.4795V92.0378L472.411 103.275H449.564H449.357L449.21 103.422L443.593 109.041H438.244L432.773 103.568V92.2448V92.0378L432.626 91.8913L421.246 80.5072V63.6254L426.716 58.153H438.037H438.244L438.39 58.0065L444.007 52.3877H472.411L478.028 58.0065L478.175 58.153H478.382H483.938L495.173 69.3907V74.9489Z" stroke="#00EE5F" stroke-opacity="0.03"/>
<path d="M408.865 51.5341L408.718 51.6805V51.8876V57.1529H403.455H403.248L403.101 57.2994L397.484 62.9182H391.927H391.72L391.574 63.0647L385.957 68.6835H357.553L352.082 63.2111V57.6529V57.4458L351.936 57.2994L346.318 51.6805V40.564L351.936 34.9451L352.082 34.7987V34.5916V23.561H362.609V28.8263V29.0334L362.756 29.1798L368.373 34.7987V40.357V40.857H368.873H374.637H374.844L374.99 40.7105L386.371 29.3263H391.72L397.337 34.9451L397.484 35.0916H397.691H409.011L414.482 40.564V45.9152L408.865 51.5341Z" stroke="#00EE5F" stroke-opacity="0.03"/>
<path d="M490.409 213.523L495.673 208.258L501.083 213.67L501.229 213.816H501.436H507.2H507.407L507.554 213.67L513.171 208.051H524.491H524.698L524.845 207.904L530.255 202.493L535.518 207.758V224.847V230.405L530.047 235.877H518.727H518.52L518.374 236.024L512.757 241.643H507.407L501.79 236.024L496.026 230.259L495.88 230.112H495.673H490.116L484.853 224.847L490.263 219.435L490.409 219.289V219.082V213.523Z" stroke="#00EE5F" stroke-opacity="0.03"/>
<path d="M518.935 236.878H529.755V247.908V248.115L529.901 248.262L535.311 253.674L530.047 258.939H518.935L513.317 253.32L513.171 253.174H512.964H495.88L490.616 247.908L496.026 242.496L496.173 242.35V242.143V231.82L506.846 242.496L506.993 242.643H507.2H512.964H513.171L513.317 242.496L518.935 236.878Z" stroke="#00EE5F" stroke-opacity="0.03"/>
<path d="M536.518 265.204V264.997L536.372 264.851L530.962 259.439L536.372 254.027L536.725 253.674L536.372 253.32L530.755 247.701V236.585L536.225 231.112H541.575L552.956 242.496L553.102 242.643H553.309H558.866L564.483 248.262L564.629 248.408H564.836H570.1V264.997L564.629 270.469H547.546H547.338L547.192 270.616L541.575 276.235H536.518V265.204Z" stroke="#00EE5F" stroke-opacity="0.03"/>
<path d="M455.681 230.966L455.827 230.819V230.612V224.847V219.582H466.647L472.265 225.2L472.411 225.347H472.618H483.938L489.556 230.966L489.702 231.112H489.909H495.173V241.936L489.556 247.555L483.938 253.173H472.825L467.208 247.555L467.062 247.408H466.855H455.535L450.064 241.936V236.585L455.681 230.966Z" stroke="#00EE5F" stroke-opacity="0.03"/>
<path d="M449.064 236.377V241.643H432.273H432.066L431.919 241.789L426.302 247.408H415.482V230.819L426.716 219.582H443.593L449.21 225.2L449.357 225.347H449.564H454.827V230.405L449.21 236.024L449.064 236.17V236.377Z" stroke="#00EE5F" stroke-opacity="0.03"/>
<path d="M415.482 276.734V276.527L415.336 276.381L409.718 270.762V253.88L415.189 248.408H426.509H426.716L426.863 248.261L432.48 242.643H449.357L454.827 248.115V259.231L437.683 276.381L437.536 276.527V276.734V287.765H432.48L426.863 282.146L426.716 282H426.509H420.746H420.538L420.392 282.146L415.482 287.058V276.734Z" stroke="#00EE5F" stroke-opacity="0.03"/>
<path d="M414.982 288.765H415.189L415.336 288.619L420.953 283H426.302L431.919 288.619L432.066 288.765H432.273H437.536V305.061H432.273H432.066L431.919 305.208L409.011 328.122H403.455H403.248L403.101 328.269L397.484 333.888H392.135L386.664 328.415V322.857V322.65L386.517 322.504L380.9 316.885V300.296H386.164H386.371L386.517 300.149L392.135 294.531H397.691H397.898L398.045 294.384L403.662 288.765H414.982Z" stroke="#00EE5F" stroke-opacity="0.03"/>
<path d="M379.9 317.092V317.299L380.046 317.445L385.664 323.064V328.622V328.83L385.81 328.976L390.721 333.888H386.164H385.957L385.81 334.034L368.666 351.184H351.775L345.578 345.548L345.435 345.418H345.242H334.498L329.027 339.946V334.888H345.818H346.025L346.172 334.741L351.936 328.976L352.289 328.622L351.936 328.269L346.318 322.65V311.827H351.582H351.789L351.936 311.68L363.316 300.296H374.429L379.9 305.768V317.092Z" stroke="#00EE5F" stroke-opacity="0.03"/>
<path d="M357.699 363.568L357.846 363.421V363.214V352.184H368.373V357.449V357.656L368.519 357.802L379.9 369.187V380.51V386.068L374.283 391.687L374.137 391.834V392.041V397.306H346.025L340.762 392.041L346.172 386.629L346.318 386.482V386.275V380.717L351.936 375.098L352.082 374.952V374.745V369.187L357.699 363.568Z" stroke="#00EE5F" stroke-opacity="0.03"/>
<path d="M397.691 374.245H397.484L397.337 374.391L391.72 380.01H380.9V368.98V368.772L380.754 368.626L369.373 357.242V351.891L386.371 334.888H391.72L403.101 346.272L403.247 346.418H403.455H420.538L426.009 351.891V363.214V363.421L426.156 363.568L431.066 368.48H420.746H420.538L420.392 368.626L414.775 374.245H397.691Z" stroke="#00EE5F" stroke-opacity="0.03"/>
<path d="M431.919 334.034L431.566 334.388L431.919 334.741L437.537 340.36V345.711L432.066 351.184H426.716L421.099 345.565L420.953 345.418H420.746H403.662L393.134 334.888H397.691H397.898L398.045 334.741L403.662 329.122H409.218H409.426L409.572 328.976L432.48 306.061H437.537V311.326V311.533L437.683 311.68L443.3 317.299V328.122H438.037H437.829L437.683 328.269L431.919 334.034Z" stroke="#00EE5F" stroke-opacity="0.03"/>
<path d="M449.917 328.269L449.771 328.122H449.564H444.3V317.092V316.885L444.154 316.738L438.536 311.119V288.765H460.884L466.501 294.384L466.647 294.53H466.855H489.702L495.173 300.003V311.119L489.556 316.738L489.409 316.885V317.092V328.122H484.146H483.938L483.792 328.269L472.411 339.653H461.591V334.388V333.888H461.091H455.534L449.917 328.269Z" stroke="#00EE5F" stroke-opacity="0.03"/>
<path d="M483.792 282.147L483.438 282.5L483.792 282.854L489.409 288.472V293.531H467.062L461.445 287.912L461.298 287.765H461.091H438.536V276.942L455.681 259.792L455.827 259.646V259.439V248.408H466.647L472.265 254.027L472.411 254.174H472.618H484.145H484.353L484.499 254.027L489.909 248.615L495.319 254.027L495.466 254.174H495.673H500.936V259.232L495.319 264.851L489.556 270.616L489.409 270.762V270.969V276.528L483.792 282.147Z" stroke="#00EE5F" stroke-opacity="0.03"/>
<path d="M535.518 265.411V276.235H530.255H530.047L529.901 276.381L524.137 282.146L523.991 282.293V282.5V288.058L518.52 293.53H512.964H512.757L512.61 293.677L506.993 299.296H501.436H501.229L501.083 299.442L496.173 304.354V299.796V299.589L496.026 299.442L490.409 293.823V288.265V288.058L490.263 287.912L484.853 282.5L490.263 277.088L490.409 276.942V276.735V271.176L501.79 259.792L501.936 259.646V259.439V254.173H512.757L518.374 259.792L518.52 259.939H518.727H530.047L535.518 265.411Z" stroke="#00EE5F" stroke-opacity="0.03"/>
<path d="M530.755 311.326V311.119L530.608 310.973L524.991 305.354V288.265V282.707L530.462 277.234H535.518V282.5V282.707L535.665 282.853L541.428 288.618L541.575 288.765H541.782H547.338L558.573 300.003V311.119L553.102 316.592H530.755V311.326Z" stroke="#00EE5F" stroke-opacity="0.03"/>
<path d="M564.836 293.53H564.629L564.483 293.677L559.073 299.089L547.899 287.912L547.753 287.765H547.546H541.989L536.518 282.293V277.235H541.782H541.989L542.136 277.088L547.753 271.469H564.629L570.246 277.088L570.393 277.235H570.6H575.864V288.058L570.393 293.53H564.836Z" stroke="#00EE5F" stroke-opacity="0.03"/>
<path d="M599.065 282.853L599.211 283H599.418H604.975L610.445 288.472V299.589L593.447 316.592H565.044L559.573 311.119V300.003L565.044 294.53H570.6H570.807L570.954 294.384L576.717 288.618L576.864 288.472V288.265V277.234H593.447L599.065 282.853Z" stroke="#00EE5F" stroke-opacity="0.03"/>
<path d="M610.946 300.503L622.119 311.68L622.266 311.827H622.473H627.737V322.65L605.182 345.211L599.918 339.946V334.388V334.181L599.772 334.034L594.155 328.415V317.299L610.946 300.503Z" stroke="#00EE5F" stroke-opacity="0.03"/>
<path d="M565.336 334.388V317.592H593.155V328.622V328.829L593.301 328.976L598.918 334.595V340.153V340.36L599.065 340.507L604.475 345.918L593.447 356.949H576.571L565.19 345.565L565.044 345.418H564.836H559.573V340.36L565.19 334.741L565.336 334.595V334.388Z" stroke="#00EE5F" stroke-opacity="0.03"/>
<path d="M558.573 340.153V345.419H547.546H547.338L547.192 345.565L541.575 351.184H524.698L519.227 345.711V334.595L530.608 323.211L530.755 323.064V322.857V317.592H553.309H553.516L553.663 317.445L559.073 312.034L564.336 317.299V334.181L558.719 339.8L558.573 339.946V340.153Z" stroke="#00EE5F" stroke-opacity="0.03"/>
<path d="M519.081 294.384L523.991 289.472V305.561V305.768L524.137 305.915L529.755 311.533V317.092V322.65L518.52 333.888H495.88L490.409 328.415V317.299L496.026 311.68L496.173 311.533V311.326V305.768L501.644 300.296H507.2H507.407L507.554 300.149L513.171 294.53H518.727H518.934L519.081 294.384Z" stroke="#00EE5F" stroke-opacity="0.03"/>
<path d="M496.173 340.153V334.888H518.227V345.918V346.125L518.374 346.272L523.784 351.684L518.52 356.949H512.964H512.757L512.61 357.095L501.229 368.48H495.88L490.263 362.861L484.646 357.242V351.891L496.026 340.507L496.173 340.36V340.153Z" stroke="#00EE5F" stroke-opacity="0.03"/>
<path d="M529.755 374.745V380.01H524.491H524.284L524.137 380.157L512.61 391.687L512.464 391.834V392.041V397.306H507.407L501.936 391.834V386.275V386.068L501.79 385.922L484.853 368.98L489.909 363.921L495.319 369.333L495.466 369.48H495.673H501.436H501.644L501.79 369.333L513.171 357.949H518.727H518.935L519.081 357.802L524.698 352.184H541.282V357.242L535.665 362.861L535.518 363.007V363.214V368.772L529.901 374.391L529.755 374.538V374.745Z" stroke="#00EE5F" stroke-opacity="0.03"/>
<path d="M483.792 357.803L489.202 363.214L483.938 368.48H478.382H477.882V368.98V379.303L472.972 374.391L472.825 374.245H472.618H467.062L461.444 368.626L461.298 368.48H461.091H432.48L427.009 363.007V352.184H432.273H432.48L432.626 352.037L438.39 346.272L438.536 346.126V345.918V340.153V339.946L438.39 339.8L432.98 334.388L438.243 329.123H449.356L454.974 334.741L455.12 334.888H455.327H460.591V340.153V340.653H461.091H472.618H472.825L472.972 340.507L484.352 329.123H489.702L495.173 334.595V339.946L483.792 351.33L483.645 351.477V351.684V357.449V357.656L483.792 357.803Z" stroke="#00EE5F" stroke-opacity="0.03"/>
<path d="M415.335 380.157L410.425 375.245H414.982H415.189L415.335 375.098L420.952 369.479H460.884L466.501 375.098L466.647 375.245H466.854H472.411L477.675 380.51L472.264 385.922L472.118 386.068V386.275V391.834L466.501 397.453L466.354 397.599V397.806V414.602H455.534L449.917 408.983L449.771 408.837H449.563H444.007L438.39 403.218L438.243 403.071H438.036H432.48L415.482 386.068V380.51V380.303L415.335 380.157Z" stroke="#00EE5F" stroke-opacity="0.03"/>
<path d="M443.8 409.837H448.357L443.446 414.749L443.3 414.895V415.102V431.191L438.39 426.279L438.243 426.133H438.036H426.509H426.302L426.155 426.279L420.538 431.898H415.189L409.718 426.426V420.868V420.661L409.572 420.514L403.808 414.749L403.662 414.602H403.455H398.191V409.544L403.808 403.925L404.162 403.572L403.808 403.218L398.191 397.599V392.041V391.834L398.044 391.688L392.427 386.069V380.717L397.898 375.245H409.011L414.482 380.717V386.276V386.483L414.628 386.629L431.919 403.925L432.066 404.072H432.273H437.829L443.446 409.69L443.593 409.837H443.8Z" stroke="#00EE5F" stroke-opacity="0.03"/>
<path d="M380.9 386.276V381.01H391.427V386.276V386.483L391.574 386.629L397.191 392.248V397.806V398.013L397.337 398.16L402.747 403.571L397.337 408.983L397.191 409.13V409.337V414.895L391.72 420.367H380.607L374.99 414.749L374.843 414.602H374.636H368.873H368.665L368.519 414.749L362.902 420.367H346.318V409.544L351.935 403.925L352.082 403.779V403.571V398.306H374.636H375.136V397.806V392.248L380.754 386.629L380.9 386.483V386.276Z" stroke="#00EE5F" stroke-opacity="0.03"/>
<path d="M340.408 432.751L340.554 432.605V432.398V426.84L346.025 421.367H363.109H363.316L363.463 421.221L369.08 415.602H374.429L380.046 421.221L380.193 421.367H380.4H385.663V432.191L380.046 437.81L379.9 437.956V438.163V443.929V444.136L380.046 444.282L385.663 449.901V460.725H368.873H368.665L368.519 460.871L362.902 466.49H357.345H357.138L356.992 466.636L351.375 472.255H334.791V466.99V466.783L334.644 466.636L329.027 461.017V444.136L340.408 432.751Z" stroke="#00EE5F" stroke-opacity="0.03"/>
<path d="M328.174 426.986L328.32 427.133H328.527H339.555V432.191L328.174 443.575L328.027 443.722V443.929V461.225V461.432L328.174 461.578L333.791 467.197V472.255H328.527H328.32L328.174 472.402L322.556 478.02H311.236H311.029L310.883 478.167L305.266 483.786H299.709H299.502L299.355 483.932L288.682 494.609V484.493L294.299 478.874L294.445 478.727V478.52V472.755V472.548L294.299 472.402L288.682 466.783V449.694V449.487L288.535 449.34L282.772 443.575L282.625 443.429H282.418H276.862L271.598 438.163L277.008 432.751L277.155 432.605V432.398V426.84L288.389 415.602H293.445V420.867V421.074L293.592 421.221L299.355 426.986L299.502 427.133H299.709H317H317.5V426.633V421.367H322.556L328.174 426.986Z" stroke="#00EE5F" stroke-opacity="0.03"/>
<path d="M300.209 518.878V518.378H299.709H288.682V496.024L299.916 484.786H305.473H305.68L305.826 484.639L311.443 479.021H322.763H322.971L323.117 478.874L328.734 473.255H351.374L356.992 478.874L357.138 479.021H357.345H362.902L368.373 484.493V495.61L356.992 506.994L356.845 507.14V507.347V518.671L351.375 524.143H346.025L340.554 518.671V513.113V512.613H340.054H334.291H334.084L333.937 512.759L322.556 524.143H311.236H311.029L310.883 524.29L305.265 529.908H300.209V518.878Z" stroke="#00EE5F" stroke-opacity="0.03"/>
<path d="M426.155 483.932L426.009 484.079V484.286V489.844L421.245 494.609V490.051V489.844L421.099 489.698L409.718 478.313V472.755V472.548L409.572 472.402L398.044 460.871L397.898 460.725H397.691H386.664V449.694V449.487L386.517 449.34L380.9 443.722V438.37L386.517 432.751L386.664 432.605V432.398V421.367H391.927H392.134L392.281 421.221L397.898 415.602H403.247L408.718 421.074V426.633V426.84L408.864 426.986L414.628 432.751L414.775 432.898H414.982H420.745H420.952L421.099 432.751L426.716 427.133H437.829L443.3 432.605V437.956L437.683 443.575L437.536 443.722V443.929V449.487L431.919 455.106L431.566 455.459L431.919 455.813L443.093 466.99L426.155 483.932Z" stroke="#00EE5F" stroke-opacity="0.03"/>
<path d="M380.4 489.551H380.193L380.046 489.698L374.429 495.316H369.373V484.286V484.079L369.226 483.932L363.463 478.167L363.316 478.021H363.109H357.553L352.289 472.755L357.553 467.49H363.109H363.316L363.463 467.343L369.08 461.725H386.164H397.484L408.718 472.962V478.521V478.728L408.865 478.874L420.245 490.258V495.316H415.189L409.572 489.698L409.425 489.551H409.218H403.455H380.4Z" stroke="#00EE5F" stroke-opacity="0.03"/>
<path d="M363.109 524.143H352.789L357.699 519.231L357.845 519.085V518.878V507.554L369.08 496.317H374.636H374.843L374.99 496.17L380.607 490.551H402.954V495.61L397.337 501.228L397.191 501.375V501.582V512.613H391.927H391.427V513.113V518.671L385.956 524.143H380.4H380.193L380.046 524.29L374.283 530.055L374.136 530.201V530.408V541.439H369.08L363.609 535.967V524.643V524.143H363.109Z" stroke="#00EE5F" stroke-opacity="0.03"/>
<path d="M403.955 530.408V530.201L403.808 530.055L398.191 524.436V513.113V501.789L403.808 496.17L403.955 496.024V495.817V490.551H409.011L414.628 496.17L414.775 496.317H414.982H420.245V501.582V502.082H420.745H426.009V507.347V507.554L426.155 507.701L437.536 519.085V524.643V524.85L437.683 524.997L448.357 535.674H438.244L432.626 530.055L432.48 529.908H432.273H426.509H426.302L426.155 530.055L414.775 541.439H403.955V530.408Z" stroke="#00EE5F" stroke-opacity="0.03"/>
<path d="M460.591 524.85V529.908H455.327H455.12L454.974 530.055L449.564 535.466L438.536 524.436V518.878V518.671L438.39 518.524L427.009 507.14V501.582V501.082H426.509H421.245V496.024L426.863 490.405L427.009 490.258V490.051V484.493L444.154 467.344L455.534 455.959H460.591V461.225V461.432L460.737 461.578L466.501 467.344L466.647 467.49H466.854H472.118V472.548L460.737 483.932L460.591 484.079V484.286V489.844L454.974 495.463L454.827 495.61V495.817V501.375L449.21 506.994L448.857 507.347L449.21 507.701L454.827 513.32V518.878V519.085L454.974 519.231L460.591 524.85Z" stroke="#00EE5F" stroke-opacity="0.03"/>
<path d="M473.118 541.939V541.732L472.972 541.586L461.591 530.201V524.643V524.436L461.444 524.29L455.827 518.671V513.113V512.905L455.681 512.759L450.27 507.347L455.681 501.935L455.827 501.789V501.582V496.024L461.444 490.405L461.591 490.258V490.051V484.493L472.618 473.463L477.882 478.728V490.051V490.258L478.028 490.405L483.645 496.024V501.582V501.789L483.792 501.935L489.409 507.554V512.905L483.792 518.524L483.645 518.671V518.878V524.643V524.85L483.792 524.997L489.409 530.616V553.263L484.145 558.528L473.118 547.497V541.939Z" stroke="#00EE5F" stroke-opacity="0.03"/>
<path d="M489.555 449.341L489.202 449.694L489.555 450.048L494.966 455.459L483.938 466.49H472.618H467.062L461.591 461.018V455.459V454.959H461.091H455.327H455.12L454.974 455.106L443.8 466.283L432.98 455.459L438.39 450.048L438.536 449.901V449.694V444.136L444.154 438.517L444.3 438.371V438.163V415.309L449.564 410.044L454.974 415.456L455.12 415.602H455.327H466.647L472.265 421.221L472.411 421.368H472.618H483.645V426.633V426.84L483.792 426.986L495.173 438.371V443.722L489.555 449.341Z" stroke="#00EE5F" stroke-opacity="0.03"/>
<path d="M495.319 489.698L495.173 489.844V490.051V501.375L489.909 506.64L484.645 501.375V495.817V495.61L484.499 495.463L478.882 489.844V478.521V478.314L478.735 478.167L473.118 472.548V467.49H484.145H484.353L484.499 467.344L495.673 456.167L506.846 467.344L506.993 467.49H507.2H512.464V472.548L495.319 489.698Z" stroke="#00EE5F" stroke-opacity="0.03"/>
<path d="M495.673 414.602H495.466L495.319 414.748L489.702 420.367H484.145H472.825L467.354 414.895V398.013L472.972 392.394L473.118 392.248V392.041V386.482L478.735 380.864L478.882 380.717V380.51V369.479H483.938L500.936 386.482V392.041V392.248L501.083 392.394L506.846 398.16L506.993 398.306H507.2H512.464V409.13L506.993 414.602H495.673Z" stroke="#00EE5F" stroke-opacity="0.03"/>
<path d="M484.646 426.426V421.368H489.909H490.116L490.263 421.221L495.88 415.602H507.2H507.407L507.554 415.456L512.964 410.044L529.755 426.84V449.694V449.901L529.901 450.048L541.075 461.225L535.665 466.637L535.518 466.783V466.99V472.255H530.462L524.845 466.637L524.698 466.49H524.491H512.964H507.407L490.616 449.694L496.026 444.282L496.173 444.136V443.929V438.163V437.956L496.026 437.81L484.646 426.426Z" stroke="#00EE5F" stroke-opacity="0.03"/>
<path d="M529.901 420.514L529.755 420.66V420.867V425.425L513.464 409.13V397.806V392.248L524.698 381.01H530.255H530.755V380.51V374.952L536.018 369.687L547.045 380.717V386.275V386.482L547.192 386.629L552.809 392.248V403.364L541.575 414.602H536.018H535.811L535.665 414.748L529.901 420.514Z" stroke="#00EE5F" stroke-opacity="0.03"/>
<path d="M552.809 404.779V409.337V409.544L552.955 409.691L558.366 415.102L552.955 420.514L552.809 420.661V420.868V438.164V438.371L552.955 438.517L564.336 449.901V455.46V455.667L564.483 455.813L570.1 461.432V466.49H559.28L553.663 460.871L553.516 460.725H553.309H541.989L530.754 449.487V426.633V421.075L536.225 415.602H541.782H541.989L542.135 415.456L552.809 404.779Z" stroke="#00EE5F" stroke-opacity="0.03"/>
<path d="M265.627 386.276V375.245H287.975L293.592 380.864L293.738 381.01H293.946H299.502L304.973 386.483V397.806V398.013L305.119 398.16L310.736 403.779V409.337V409.544L310.883 409.691L316.5 415.309V420.868V426.133H299.916L294.446 420.661V415.102V414.602H293.946H288.182H287.975L287.828 414.749L276.301 426.279L276.155 426.426V426.633V432.191L270.891 437.456L265.627 432.191V426.633V426.426L265.481 426.279L259.864 420.661V397.806V397.599L259.717 397.453L254.307 392.041L259.571 386.776H265.127H265.627V386.276Z" stroke="#00EE5F" stroke-opacity="0.03"/>
<path d="M322.764 420.367H317.5V415.102V414.895L317.353 414.748L311.736 409.13V403.571V403.364L311.59 403.218L305.973 397.599V386.275V386.068L305.826 385.922L300.416 380.51L311.443 369.479H316.793L322.41 375.098L322.556 375.245H322.764H328.32L333.937 380.864L334.084 381.01H334.291H339.847L345.111 386.275L339.701 391.687L339.347 392.041L339.701 392.394L345.464 398.16L345.611 398.306H345.818H351.082V403.364L345.464 408.983L345.318 409.13V409.337V420.66L339.847 426.133H328.734L323.117 420.514L322.971 420.367H322.764Z" stroke="#00EE5F" stroke-opacity="0.03"/>
<path d="M345.318 380.51V385.068L340.408 380.157L340.262 380.01H340.055H334.498L328.881 374.391L328.734 374.245H328.527H322.971L317.5 368.773V357.656L323.117 352.037L323.264 351.891V351.684V345.918V345.418H322.764H311.736V340.36L317.354 334.741L317.5 334.595V334.388V329.123H322.556L328.027 334.595V340.153V340.36L328.174 340.507L333.937 346.272L334.084 346.418H334.291H345.048L351.245 352.054L351.388 352.184H351.582H356.845V363.007L351.228 368.626L351.082 368.773V368.98V374.538L345.465 380.157L345.318 380.303V380.51Z" stroke="#00EE5F" stroke-opacity="0.03"/>
<path d="M316.5 334.181L311.236 339.446L305.826 334.034L305.68 333.888H305.473H299.916L294.446 328.415V323.064L300.063 317.445L300.416 317.092L300.063 316.738L294.446 311.119V305.561V305.354L294.299 305.208L288.682 299.589V294.531H299.709H299.916L300.063 294.384L305.826 288.619L305.973 288.472V288.265V283H311.029L322.41 294.384L322.557 294.531H322.764H328.32L333.937 300.149L334.084 300.296H334.291H340.055H340.262L340.408 300.149L345.818 294.738L356.639 305.561L351.375 310.827H345.818H345.318V311.327V322.857V323.064L345.465 323.211L350.875 328.622L345.611 333.888H328.735L323.117 328.269L322.971 328.122H322.764H317H316.5V328.622V334.181Z" stroke="#00EE5F" stroke-opacity="0.03"/>
<path d="M357.553 259.939H362.609V265.204V265.411L362.755 265.558L368.373 271.177V282.5V282.707L368.519 282.854L374.136 288.473V299.296H363.109H362.902L362.755 299.443L357.345 304.854L346.172 293.677L345.818 293.324L345.465 293.677L339.847 299.296H334.498L328.881 293.677L328.734 293.531H328.527H322.971L311.943 282.5L317.207 277.235H328.527H328.734L328.881 277.088L340.262 265.704H351.582H351.789L351.935 265.558L357.553 259.939Z" stroke="#00EE5F" stroke-opacity="0.03"/>
<path d="M414.482 276.942V287.765H403.455H403.247L403.101 287.912L397.484 293.531H391.927H391.72L391.574 293.677L385.957 299.296H380.4H379.9V299.796V304.354L375.136 299.589V288.265V288.058L374.99 287.912L369.373 282.293V270.969V270.762L369.226 270.616L363.609 264.997V259.646L369.08 254.174H380.4H380.607L380.754 254.027L386.371 248.408H397.484L408.718 259.646V270.969V271.176L408.865 271.323L414.482 276.942Z" stroke="#00EE5F" stroke-opacity="0.03"/>
<path d="M397.691 247.408H386.664V236.378V236.171L386.517 236.024L380.9 230.405V219.082V218.875L380.753 218.728L375.136 213.11V196.228L380.607 190.755H414.482V213.11L408.864 218.728L408.718 218.875V219.082V230.613V231.113H409.218H414.482V247.701L408.864 253.32L408.718 253.467V253.674V258.232L398.044 247.555L397.898 247.408H397.691Z" stroke="#00EE5F" stroke-opacity="0.03"/>
<path d="M352.082 190.255V184.99H362.609V190.255V190.462L362.755 190.609L368.519 196.374L368.666 196.52H368.873H374.136V213.316V213.523L374.283 213.67L379.9 219.289V230.612V230.819L380.046 230.966L385.664 236.585V247.701L380.193 253.173H368.873H368.666L368.519 253.32L362.902 258.939H357.553L352.082 253.466V247.908V247.701L351.935 247.555L334.791 230.405V219.082V218.875L334.645 218.728L329.234 213.316L334.645 207.904L334.998 207.551L334.645 207.197L323.117 195.667L317.5 190.048V184.99H334.084L345.465 196.374L345.818 196.728L346.172 196.374L351.935 190.609L352.082 190.462V190.255Z" stroke="#00EE5F" stroke-opacity="0.03"/>
<path d="M328.32 276.235H317.5V265.204V264.997L317.354 264.851L311.736 259.232V253.674V253.466L311.59 253.32L306.18 247.908L311.443 242.643H317H317.207L317.354 242.496L328.734 231.112H334.084L351.082 248.115V253.674V253.881L351.228 254.027L356.638 259.439L351.375 264.704H340.054H339.847L339.701 264.851L328.32 276.235Z" stroke="#00EE5F" stroke-opacity="0.03"/>
<path d="M310.883 241.789L305.473 247.201L300.063 241.789L299.916 241.643H299.709H294.445V236.378V236.171L294.299 236.024L283.125 224.847L288.535 219.435L288.682 219.289V219.082V190.462L299.709 179.432L305.119 184.843L305.266 184.99H305.473H316.5V190.255V190.462L316.646 190.609L333.584 207.551L328.174 212.963L327.82 213.316L328.174 213.67L333.791 219.289V230.112H328.527H328.32L328.174 230.259L316.793 241.643H311.236H311.029L310.883 241.789Z" stroke="#00EE5F" stroke-opacity="0.03"/>
<path d="M230.192 172.606L225.282 177.517V172.959V172.752L225.136 172.606L219.372 166.841L219.225 166.694H219.018H213.755V155.87L219.225 150.398H259.364H259.571L259.717 150.252L265.334 144.633H270.391V149.898V150.105L270.537 150.252L276.301 156.017L276.447 156.163H276.655H282.211L287.682 161.636V167.194V172.752L282.211 178.225H276.655H276.447L276.301 178.371L270.684 183.99H265.334L259.717 178.371L259.571 178.225H259.364H253.807L248.19 172.606L248.044 172.459H247.836H230.546H230.338L230.192 172.606Z" stroke="#00EE5F" stroke-opacity="0.03"/>
<path d="M242.426 207.197L242.28 207.051H242.073H231.045V201.993L236.663 196.374L236.809 196.227V196.02V184.49V183.99H236.309H230.753L225.489 178.724L230.753 173.459H247.629L253.246 179.078L253.393 179.224H253.6H259.156L264.774 184.843L264.92 184.99H265.127H270.891H271.098L271.244 184.843L276.862 179.224H282.418H282.625L282.772 179.078L288.535 173.313L288.682 173.166V172.959V167.694H293.738L299.209 173.166V178.517L287.828 189.902L287.682 190.048V190.255V218.875L282.211 224.347H276.862L271.244 218.728L271.098 218.582H270.891H259.571L253.954 212.963L253.807 212.816H253.6H248.043L242.426 207.197Z" stroke="#00EE5F" stroke-opacity="0.03"/>
<path d="M242.426 241.79L242.28 241.643H242.073H236.516L219.725 224.847L225.135 219.435L225.282 219.289V219.082V213.524L230.752 208.051H241.865L247.483 213.67L247.629 213.817H247.836H253.393L259.01 219.435L259.156 219.582H259.364H270.684L276.154 225.054V236.171L264.92 247.408H248.043L242.426 241.79Z" stroke="#00EE5F" stroke-opacity="0.03"/>
<path d="M265.481 254.027L265.627 253.881V253.674V248.115L277.008 236.731L277.154 236.585V236.378V225.347H282.211L293.445 236.585V242.143V242.643H293.945H299.502L305.119 248.262L310.736 253.881V259.439V259.646L310.883 259.793L316.5 265.411V276.528L311.029 282H305.473H304.973V282.5V288.058L299.502 293.531H288.389L282.918 288.058V282.5V282.293L282.772 282.147L271.244 270.616L271.098 270.47H270.891H265.334L259.864 264.997V259.646L265.481 254.027Z" stroke="#00EE5F" stroke-opacity="0.03"/>
<path d="M258.864 259.439V264.704H253.6H253.393L253.246 264.851L247.629 270.47H219.225L213.962 265.204L219.372 259.793L219.518 259.646V259.439V253.674V253.174H219.018H213.755V247.908V247.408H213.255H202.227V242.143V241.643H201.727H196.464V236.585L201.934 231.112H213.255H213.462L213.608 230.966L219.018 225.554L235.955 242.497L236.102 242.643H236.309H241.866L247.483 248.262L247.629 248.408H247.836H264.627V253.467L259.01 259.086L258.864 259.232V259.439Z" stroke="#00EE5F" stroke-opacity="0.03"/>
<path d="M247.483 322.504L247.336 322.65V322.857V328.122H225.282V322.857V299.796V299.589L225.135 299.442L219.372 293.677L219.225 293.531H219.018H213.755V288.265V288.058L213.608 287.912L207.991 282.293V271.176L213.255 265.911L218.665 271.323L218.811 271.469H219.018H247.629L253.1 276.942V282.293L247.483 287.912L247.336 288.058V288.265V299.796V300.003L247.483 300.149L253.1 305.768V316.885L247.483 322.504Z" stroke="#00EE5F" stroke-opacity="0.03"/>
<path d="M265.127 305.061H264.92L264.774 305.208L259.157 310.827H254.1V305.561V305.354L253.954 305.208L248.336 299.589V288.472L253.954 282.854L254.1 282.707V282.5V276.735V276.528L253.954 276.381L248.543 270.969L253.807 265.704H259.157L264.774 271.323L264.92 271.469H265.127H270.684L281.918 282.707V288.265V288.472L282.065 288.619L286.975 293.531H282.418H281.918V294.031V299.589L276.447 305.061H265.127Z" stroke="#00EE5F" stroke-opacity="0.03"/>
<path d="M265.481 328.269L265.334 328.123H265.127H253.807L248.543 322.857L253.954 317.445L254.1 317.299V317.092V311.827H259.364H259.571L259.717 311.68L265.334 306.061H276.655H276.862L277.008 305.915L282.772 300.15L282.918 300.003V299.796V294.531H287.682V299.796V300.003L287.828 300.15L293.446 305.768V311.327V311.534L293.592 311.68L299.002 317.092L293.738 322.357H288.182H287.975L287.828 322.504L282.211 328.123H276.655H276.447L276.301 328.269L270.891 333.681L265.481 328.269Z" stroke="#00EE5F" stroke-opacity="0.03"/>
<path d="M288.535 340.507L288.889 340.153L288.535 339.8L282.918 334.181V328.83L288.389 323.357H293.445V328.623V328.83L293.592 328.976L299.355 334.742L299.502 334.888H299.709H305.266L310.736 340.36V345.919V346.419H311.236H322.264V351.477L316.646 357.096L316.5 357.242V357.449V368.48H311.236H311.029L310.883 368.626L299.502 380.01H294.153L288.535 374.392L288.389 374.245H288.182H265.627V363.422L288.535 340.507Z" stroke="#00EE5F" stroke-opacity="0.03"/>
<path d="M248.336 328.623V324.065L253.246 328.976L253.393 329.123H253.6H264.92L270.537 334.742L270.891 335.095L271.245 334.742L276.862 329.123H281.918V334.388V334.595L282.065 334.742L287.475 340.153L264.774 362.861L264.627 363.007V363.215V374.745V385.776H259.571L248.336 374.538V368.98V368.773L248.19 368.626L242.573 363.007V357.656L248.19 352.037L248.336 351.891V351.684V328.623Z" stroke="#00EE5F" stroke-opacity="0.03"/>
<path d="M213.608 334.742L213.755 334.595V334.388V328.83L219.225 323.357H224.282V328.623V329.123H224.782H247.336V351.477L241.866 356.949H236.516L230.899 351.33L230.753 351.184H230.545H213.799L207.991 345.703V340.36L213.608 334.742Z" stroke="#00EE5F" stroke-opacity="0.03"/>
<path d="M225.136 357.802L225.489 357.449L225.136 357.095L220.225 352.184H230.338L235.956 357.802L236.102 357.949H236.309H241.573V363.214V363.421L241.719 363.568L247.336 369.187V374.745V374.952L247.483 375.098L258.657 386.275L253.393 391.541H242.28L230.899 380.157L230.753 380.01H230.546H224.782H224.575L224.428 380.157L219.518 385.068V374.745V374.538L219.372 374.391L213.962 368.98L225.136 357.802Z" stroke="#00EE5F" stroke-opacity="0.03"/>
<path d="M212.342 351.183H201.727H201.52L201.374 351.33L195.61 357.095L195.464 357.242V357.449V368.772L189.993 374.245H184.436H184.229L184.083 374.391L178.466 380.01H173.116L161.735 368.626L161.589 368.479H161.382H156.825L161.735 363.568L161.882 363.421V363.214V340.36L167.499 334.741L167.645 334.595V334.388V328.829L173.116 323.357H184.436H201.52L207.137 328.976L207.284 329.122H207.491H212.755V334.18L207.137 339.799L206.991 339.946V340.153V345.918V346.134L207.148 346.282L212.342 351.183Z" stroke="#00EE5F" stroke-opacity="0.03"/>
<path d="M190.7 397.806V397.599L190.554 397.453L179.173 386.068V380.717L184.644 375.245H190.2H190.407L190.554 375.098L196.317 369.333L196.464 369.187V368.98V357.656L201.935 352.184H218.811L224.075 357.449L212.901 368.626L212.548 368.98L212.901 369.333L218.518 374.952V385.775H213.255H213.048L212.901 385.922L207.284 391.541H201.727H201.52L201.374 391.687L190.7 402.364V397.806Z" stroke="#00EE5F" stroke-opacity="0.03"/>
<path d="M213.608 414.748L213.462 414.602H213.254H201.934L190.907 403.571L201.934 392.54H207.491H207.698L207.844 392.394L213.462 386.775H219.018H219.225L219.372 386.629L224.989 381.01H230.338L241.719 392.394L241.866 392.54H242.073H253.393L258.157 397.306H253.6H247.836H247.629L247.483 397.452L235.955 408.983L235.809 409.129V409.336V420.66L230.545 425.925L225.135 420.513L224.989 420.367H224.782H219.225L213.608 414.748Z" stroke="#00EE5F" stroke-opacity="0.03"/>
<path d="M230.545 427.133H230.752L230.899 426.986L236.663 421.221L236.809 421.074V420.867V409.544L248.043 398.306H258.864V420.867V421.074L259.01 421.221L264.627 426.84V432.398V432.605L264.774 432.752L270.537 438.517L276.301 444.282L276.447 444.429H276.654H282.211L287.682 449.901V460.725H242.28L236.663 455.106L236.516 454.959H236.309H230.752L225.282 449.487V443.929V443.722L225.135 443.575L219.518 437.956V432.605L224.989 427.133H230.545Z" stroke="#00EE5F" stroke-opacity="0.03"/>
<path d="M236.309 467.489H236.516L236.663 467.343L242.28 461.724H287.682V466.989V467.196L287.828 467.343L293.446 472.962V478.313L287.828 483.932L287.682 484.078V484.285V495.816V518.377H276.862L271.391 512.905V507.347V507.14L271.245 506.993L265.481 501.228L265.335 501.081H265.127H242.28L236.663 495.462L236.516 495.316H236.309H224.989L219.518 489.844V484.285V484.078L219.372 483.932L213.962 478.52L219.225 473.255H224.782H224.989L225.136 473.108L230.753 467.489H236.309Z" stroke="#00EE5F" stroke-opacity="0.03"/>
<path d="M202.227 420.867V415.602H213.047L218.665 421.221L218.811 421.367H219.018H224.575L229.339 426.133H224.782H224.575L224.428 426.279L218.665 432.044L218.518 432.191V432.398V438.163V438.37L218.665 438.517L224.282 444.136V449.694V449.901L224.428 450.047L230.192 455.813L230.338 455.959H230.546H236.102L241.366 461.224L236.102 466.49H230.546H230.338L230.192 466.636L224.575 472.255H219.018H218.811L218.665 472.402L212.901 478.167L212.548 478.52L212.901 478.874L218.518 484.493V489.551H201.934L196.317 483.932L196.171 483.786H195.964H178.88L173.409 478.313V467.197L179.026 461.578L179.173 461.432V461.224V455.666L184.79 450.047L185.143 449.694L184.79 449.34L179.026 443.575L178.88 443.429H178.673H173.409V427.133H195.964H196.171L196.317 426.986L202.081 421.221L202.227 421.074V420.867Z" stroke="#00EE5F" stroke-opacity="0.03"/>
<path d="M144.591 380.51V374.952L150.062 369.479H155.618H161.175L172.555 380.864L172.702 381.01H172.909H178.173V386.275V386.482L178.319 386.629L189.7 398.013V403.571V403.778L189.846 403.925L201.227 415.309V420.66L195.756 426.133H172.909H172.409V426.633V431.191L167.499 426.279L167.353 426.133H167.145H161.589L155.972 420.514L155.825 420.367H155.618H150.062L132.917 403.218L132.771 403.071H132.564H121.536V392.248L132.771 381.01H144.091H144.591V380.51Z" stroke="#00EE5F" stroke-opacity="0.03"/>
<path d="M155.972 444.282L156.325 443.928L155.972 443.575L150.354 437.956V432.605L155.825 427.132H161.382H166.938L172.409 432.605V443.928V444.428H172.909H178.465L183.729 449.694L178.319 455.105L178.173 455.252V455.459V461.017L172.555 466.636L172.409 466.782V466.989V478.313L166.938 483.785H150.062L144.591 478.313V467.197L150.208 461.578L150.354 461.431V461.224V449.901L155.972 444.282Z" stroke="#00EE5F" stroke-opacity="0.03"/>
<path d="M160.175 426.133H155.618H155.411L155.265 426.279L149.648 431.898H132.564H132.357L132.21 432.044L126.593 437.663H115.48L110.009 432.191V426.633V420.867V420.66L109.863 420.514L104.246 414.895V409.544L109.716 404.071H121.037H132.357L149.501 421.221L149.648 421.367H149.855H155.411L160.175 426.133Z" stroke="#00EE5F" stroke-opacity="0.03"/>
<path d="M109.009 421.074V426.133H103.746H103.538L103.392 426.279L97.9819 431.691L92.5719 426.279L92.4254 426.133H92.2183H86.4547H86.2475L86.1011 426.279L80.4839 431.898H75.1345L63.9001 420.66V415.102V414.895L63.7537 414.748L58.1365 409.13V403.571V392.541H63.4001H63.6073L63.7537 392.394L69.1637 386.983L74.5738 392.394L74.7202 392.541H74.9274H86.2475L91.8647 398.16L92.2183 398.513L92.5719 398.16L98.3355 392.394L98.4819 392.248V392.041V380.717L104.099 375.098L109.716 369.479H120.536V374.745V374.952L120.683 375.098L126.447 380.864L126.593 381.01H126.8H131.357L120.683 391.687L120.536 391.834V392.041V403.071H109.509H109.302L109.156 403.218L103.392 408.983L103.246 409.13V409.337V415.102V415.309L103.392 415.455L109.009 421.074Z" stroke="#00EE5F" stroke-opacity="0.03"/>
<path d="M40.3455 409.837H40.5526L40.6991 409.69L46.3163 404.071H57.1364V409.337V409.544L57.2828 409.69L62.9 415.309V420.867V421.074L63.0464 421.221L73.7205 431.898H69.1637H68.9565L68.8101 432.044L63.1929 437.663H51.8728H51.3728V438.163V449.194H46.3163L34.9355 437.81L34.789 437.663H34.5819H28.8182H28.6111L28.4646 437.81L22.701 443.575L22.5546 443.721V443.928V454.252L17.6446 449.34L17.4981 449.194H17.2909H11.7345L6.47068 443.928L11.8809 438.517L12.0273 438.37V438.163V432.605L17.6446 426.986L17.7909 426.84V426.632V421.074L29.0254 409.837H40.3455Z" stroke="#00EE5F" stroke-opacity="0.03"/>
<path d="M35.082 461.224V460.724H34.582H29.0255L23.5547 455.252V444.135L29.0255 438.663H34.3748L45.7556 450.047L45.9021 450.194H46.1092H51.6657L57.1365 455.666V461.224V461.431L57.2829 461.578L67.9569 472.255H63.4001H63.193L63.0465 472.401L57.2829 478.167L57.1365 478.313V478.52V484.078L51.5193 489.697L51.3729 489.844V490.051V495.609L45.7556 501.228L45.6092 501.374V501.581V512.612H40.3456H40.1384L39.992 512.759L34.2284 518.524L34.082 518.67V518.877V529.201L29.3183 524.436V507.554L34.9356 501.935L35.082 501.789V501.581V484.493L40.6992 478.874L40.8456 478.727V478.52V472.755V472.548L40.6992 472.401L35.082 466.783V461.224Z" stroke="#00EE5F" stroke-opacity="0.03"/>
<path d="M74.5737 466.636L74.4273 466.783V466.99V472.255H69.3709L58.1364 461.017V455.459V455.252L57.99 455.106L52.3728 449.487V438.663H63.4001H63.6072L63.7537 438.517L68.6637 433.605V443.929V444.136L68.8101 444.282L74.4273 449.901V455.459V455.666L74.5737 455.813L79.984 461.225L74.5737 466.636Z" stroke="#00EE5F" stroke-opacity="0.03"/>
<path d="M52.2264 512.758L52.0799 512.612H51.8728H46.6091V501.788L52.2264 496.17L52.3728 496.023V495.816V490.258L57.99 484.639L58.1364 484.493V484.285V478.727L63.6072 473.255H69.1637H74.9273H86.2474L91.5112 478.52L86.101 483.932L85.9546 484.078V484.285V501.374L68.8101 518.524L63.1929 524.143H58.1364V518.877V518.67L57.99 518.524L52.2264 512.758Z" stroke="#00EE5F" stroke-opacity="0.03"/>
<path d="M109.009 427.132V432.398V432.605L109.155 432.751L114.066 437.663H109.509H109.009V438.163V466.989V467.197L109.155 467.343L114.773 472.962V478.313L109.302 483.785H87.6613L92.5717 478.874L92.9251 478.52L92.5717 478.167L86.8081 472.401L86.6616 472.255H86.4545H75.4272V467.197L81.0444 461.578L81.3979 461.224L81.0444 460.871L75.4272 455.252V449.694V449.486L75.2808 449.34L69.6636 443.721V432.898H80.6908H80.898L81.0444 432.751L86.6616 427.132H92.011L97.6281 432.751L97.9818 433.105L98.3354 432.751L103.953 427.132H109.009Z" stroke="#00EE5F" stroke-opacity="0.03"/>
<path d="M132.564 478.02H132.356L132.21 478.167L126.593 483.786H110.716L115.626 478.874L115.773 478.727V478.52V472.755V472.548L115.626 472.402L110.009 466.783V438.663H115.273H126.8H127.007L127.154 438.517L132.771 432.898H149.354V438.163V438.37L149.501 438.517L154.911 443.929L149.501 449.34L149.354 449.487V449.694V461.017L143.737 466.636L143.591 466.783V466.99V478.02H132.564Z" stroke="#00EE5F" stroke-opacity="0.03"/>
<mask id="path-119-inside-1_21_341" fill="white">
<path fill-rule="evenodd" clip-rule="evenodd" d="M518.727 178.724H530.255V190.255L524.491 196.02V201.786H530.255L536.018 207.551V224.847V230.612H541.782L553.309 242.143H559.073L564.836 247.908H570.6V265.204L564.836 270.969L570.6 276.735H576.364H593.655L599.418 282.5H605.182L610.946 288.265V299.796L622.473 311.327H628.236V322.857L605.182 345.918L593.655 357.449H576.364L564.836 345.918H559.073H547.546L541.782 351.684V357.449L536.018 363.214V368.98L547.545 380.51V386.276L553.309 392.041V403.571V409.337L559.073 415.102L553.309 420.867V438.163L564.836 449.694V455.459L570.6 461.225V466.99H559.073L553.309 461.225H541.782L536.018 466.99V472.755H530.255L524.491 466.99H512.964V472.755L495.673 490.051V501.582L489.909 507.347V513.112L484.145 518.878V524.643L489.909 530.408V553.469L484.145 559.235L472.618 547.704V541.939L461.091 530.408H455.327L449.564 536.173H438.036L432.273 530.408H426.509L414.982 541.939H403.455V530.408L397.691 524.643V513.112H391.927V518.878L386.164 524.643H380.4L374.636 530.408V541.939H368.873L363.109 536.173V524.643H351.582H345.818L340.055 518.878V513.112H334.291L322.764 524.643H311.236L305.473 530.408H299.709V518.878H288.182H276.655L270.891 513.112V507.347L265.127 501.582H242.073L236.309 495.816H224.782L219.018 490.051H201.727L195.964 484.286H178.673L172.909 478.52L167.145 484.286H149.855L144.091 478.52H132.564L126.8 484.286H109.509H86.4546V501.582L69.1637 518.878L63.4 524.643H57.6364V518.878L51.8728 513.112H46.1091H40.3455L34.5819 518.878V530.408L28.8182 524.643V507.347L34.5819 501.582V484.286L40.3455 478.52V472.755L34.5819 466.99V461.225H28.8182L23.0546 455.459L17.2909 449.694H11.5273L5.76367 443.929L11.5273 438.163V432.398L17.2909 426.633V420.867L28.8182 409.337H40.3455L46.1091 403.571H57.6364L57.6364 392.041V363.214L51.8728 357.449V340.153L46.1091 334.388V328.622V322.857L40.3455 317.092V305.561L34.5819 299.796V276.735L28.8182 270.969V259.439H34.5819L40.3455 265.204H51.8728L57.6364 259.439H69.1637L74.9273 265.204H86.4546L92.2182 259.439H97.9819L103.745 253.673L109.509 259.439L115.273 253.673V242.143L121.036 236.378H132.564L144.091 224.847H149.855L155.618 219.082L161.382 224.847V230.612L155.272 236.378L161.382 242.143H167.145L172.909 236.378H178.673V230.612V224.847L172.909 219.082H167.145L161.382 213.316L167.145 207.551V196.02L172.909 190.255V167.194L178.673 161.429V155.663L184.436 149.898H195.964L201.727 144.133L207.491 138.367V132.602L213.255 126.837H236.309V121.071L242.073 115.306H247.836L242.073 109.541H224.782L219.018 103.776L224.782 98.0102V86.4796L230.545 80.7143V69.1837H242.073L259.364 51.8877H270.891L276.655 57.653H288.182H293.945V46.1224L299.709 40.3571H305.473L311.236 34.5918V28.8265L322.764 17.2959H334.291V23.0612L340.055 28.8265L345.818 23.0612H351.582H363.109V28.8265L368.873 34.5918V40.3571H374.636L386.164 28.8265H391.927L397.691 34.5918H409.218L414.982 40.3571V46.1224L409.218 51.8877V57.653L414.982 63.4184H420.745L426.509 57.653H438.036L443.8 51.8877H472.618L478.382 57.653H484.145L495.673 69.1837V74.949L501.436 80.7143L507.2 74.949H512.964V98.0102L507.2 103.776V115.306L512.964 121.071L518.727 126.837V138.367L512.964 144.133V149.898H507.2V155.663L501.436 161.429V167.194L507.2 172.959H512.964L518.727 178.724Z"/>
</mask>
<path d="M530.255 178.724H532.255V176.724H530.255V178.724ZM518.727 178.724L517.313 180.139L517.899 180.724H518.727V178.724ZM530.255 190.255L531.669 191.669L532.255 191.083V190.255H530.255ZM524.491 196.02L523.077 194.606L522.491 195.192V196.02H524.491ZM524.491 201.786H522.491V203.786H524.491V201.786ZM530.255 201.786L531.669 200.372L531.083 199.786H530.255V201.786ZM536.018 207.551H538.018V206.723L537.433 206.137L536.018 207.551ZM536.018 230.612H534.018V232.612H536.018V230.612ZM541.782 230.612L543.196 229.198L542.61 228.612H541.782V230.612ZM553.309 242.143L551.895 243.557L552.481 244.143H553.309V242.143ZM559.073 242.143L560.487 240.729L559.901 240.143H559.073V242.143ZM564.836 247.908L563.422 249.322L564.008 249.908H564.836V247.908ZM570.6 247.908H572.6V245.908H570.6V247.908ZM570.6 265.204L572.014 266.618L572.6 266.032V265.204H570.6ZM564.836 270.969L563.422 269.555L562.008 270.969L563.422 272.383L564.836 270.969ZM570.6 276.735L569.186 278.149L569.771 278.735H570.6V276.735ZM593.655 276.735L595.069 275.321L594.483 274.735H593.655V276.735ZM599.418 282.5L598.004 283.914L598.59 284.5H599.418V282.5ZM605.182 282.5L606.596 281.086L606.01 280.5H605.182V282.5ZM610.946 288.265H612.946V287.437L612.36 286.851L610.946 288.265ZM610.946 299.796H608.946V300.624L609.531 301.21L610.946 299.796ZM622.473 311.327L621.058 312.741L621.644 313.327H622.473V311.327ZM628.236 311.327H630.236V309.327H628.236V311.327ZM628.236 322.857L629.651 324.271L630.236 323.685V322.857H628.236ZM593.655 357.449V359.449H594.483L595.069 358.863L593.655 357.449ZM576.364 357.449L574.949 358.863L575.535 359.449H576.364V357.449ZM564.836 345.918L566.251 344.504L565.665 343.918H564.836V345.918ZM547.546 345.918V343.918H546.717L546.131 344.504L547.546 345.918ZM541.782 351.684L540.367 350.27L539.782 350.855V351.684H541.782ZM541.782 357.449L543.196 358.863L543.782 358.277V357.449H541.782ZM536.018 363.214L534.604 361.8L534.018 362.386V363.214H536.018ZM536.018 368.98H534.018V369.808L534.604 370.394L536.018 368.98ZM547.545 380.51H549.545V379.682L548.96 379.096L547.545 380.51ZM547.545 386.276H545.545V387.104L546.131 387.69L547.545 386.276ZM553.309 392.041H555.309V391.213L554.724 390.627L553.309 392.041ZM553.309 409.337H551.309V410.165L551.895 410.751L553.309 409.337ZM559.073 415.102L560.487 416.516L561.901 415.102L560.487 413.688L559.073 415.102ZM553.309 420.867L551.895 419.453L551.309 420.039V420.867H553.309ZM553.309 438.163H551.309V438.992L551.895 439.577L553.309 438.163ZM564.836 449.694H566.836V448.866L566.251 448.28L564.836 449.694ZM564.836 455.459H562.836V456.287L563.422 456.873L564.836 455.459ZM570.6 461.225H572.6V460.396L572.014 459.81L570.6 461.225ZM570.6 466.99V468.99H572.6V466.99H570.6ZM559.073 466.99L557.658 468.404L558.244 468.99H559.073V466.99ZM553.309 461.225L554.724 459.81L554.138 459.225H553.309V461.225ZM541.782 461.225V459.225H540.953L540.367 459.81L541.782 461.225ZM536.018 466.99L534.604 465.576L534.018 466.162V466.99H536.018ZM536.018 472.755V474.755H538.018V472.755H536.018ZM530.255 472.755L528.84 474.169L529.426 474.755H530.255V472.755ZM524.491 466.99L525.905 465.576L525.32 464.99H524.491V466.99ZM512.964 466.99V464.99H510.964V466.99H512.964ZM512.964 472.755L514.378 474.169L514.964 473.583V472.755H512.964ZM495.673 490.051L494.258 488.637L493.673 489.223V490.051H495.673ZM495.673 501.582L497.087 502.996L497.673 502.41V501.582H495.673ZM489.909 507.347L488.495 505.933L487.909 506.519V507.347H489.909ZM489.909 513.112L491.324 514.526L491.909 513.941V513.112H489.909ZM484.145 518.878L482.731 517.464L482.145 518.049V518.878H484.145ZM484.145 524.643H482.145V525.471L482.731 526.057L484.145 524.643ZM489.909 530.408H491.909V529.58L491.324 528.994L489.909 530.408ZM489.909 553.469L491.324 554.883L491.909 554.298V553.469H489.909ZM484.145 559.235L482.731 560.649L484.145 562.064L485.56 560.649L484.145 559.235ZM472.618 547.704H470.618V548.532L471.204 549.118L472.618 547.704ZM472.618 541.939H474.618V541.111L474.033 540.525L472.618 541.939ZM461.091 530.408L462.505 528.994L461.92 528.408H461.091V530.408ZM455.327 530.408V528.408H454.499L453.913 528.994L455.327 530.408ZM449.564 536.173V538.173H450.392L450.978 537.587L449.564 536.173ZM438.036 536.173L436.622 537.587L437.208 538.173H438.036V536.173ZM432.273 530.408L433.687 528.994L433.101 528.408H432.273V530.408ZM426.509 530.408V528.408H425.681L425.095 528.994L426.509 530.408ZM414.982 541.939V543.939H415.81L416.396 543.353L414.982 541.939ZM403.455 541.939H401.455V543.939H403.455V541.939ZM403.455 530.408H405.455V529.58L404.869 528.994L403.455 530.408ZM397.691 524.643H395.691V525.471L396.277 526.057L397.691 524.643ZM397.691 513.112H399.691V511.112H397.691V513.112ZM391.927 513.112V511.112H389.927V513.112H391.927ZM391.927 518.878L393.342 520.292L393.927 519.706V518.878H391.927ZM386.164 524.643V526.643H386.992L387.578 526.057L386.164 524.643ZM380.4 524.643V522.643H379.571L378.986 523.229L380.4 524.643ZM374.636 530.408L373.222 528.994L372.636 529.58V530.408H374.636ZM374.636 541.939V543.939H376.636V541.939H374.636ZM368.873 541.939L367.458 543.353L368.044 543.939H368.873V541.939ZM363.109 536.173H361.109V537.002L361.695 537.587L363.109 536.173ZM363.109 524.643H365.109V522.643H363.109V524.643ZM345.818 524.643L344.404 526.057L344.99 526.643H345.818V524.643ZM340.055 518.878H338.055V519.706L338.64 520.292L340.055 518.878ZM340.055 513.112H342.055V511.112H340.055V513.112ZM334.291 513.112V511.112H333.462L332.877 511.698L334.291 513.112ZM322.764 524.643V526.643H323.592L324.178 526.057L322.764 524.643ZM311.236 524.643V522.643H310.408L309.822 523.229L311.236 524.643ZM305.473 530.408V532.408H306.301L306.887 531.822L305.473 530.408ZM299.709 530.408H297.709V532.408H299.709V530.408ZM299.709 518.878H301.709V516.878H299.709V518.878ZM276.655 518.878L275.24 520.292L275.826 520.878H276.655V518.878ZM270.891 513.112H268.891V513.941L269.477 514.526L270.891 513.112ZM270.891 507.347H272.891V506.519L272.305 505.933L270.891 507.347ZM265.127 501.582L266.542 500.168L265.956 499.582H265.127V501.582ZM242.073 501.582L240.658 502.996L241.244 503.582H242.073V501.582ZM236.309 495.816L237.724 494.402L237.138 493.816H236.309V495.816ZM224.782 495.816L223.367 497.23L223.953 497.816H224.782V495.816ZM219.018 490.051L220.433 488.637L219.847 488.051H219.018V490.051ZM201.727 490.051L200.313 491.465L200.899 492.051H201.727V490.051ZM195.964 484.286L197.378 482.872L196.792 482.286H195.964V484.286ZM178.673 484.286L177.258 485.7L177.844 486.286H178.673V484.286ZM172.909 478.52L174.324 477.106L172.909 475.692L171.495 477.106L172.909 478.52ZM167.145 484.286V486.286H167.974L168.56 485.7L167.145 484.286ZM149.855 484.286L148.44 485.7L149.026 486.286H149.855V484.286ZM144.091 478.52L145.505 477.106L144.92 476.52H144.091V478.52ZM132.564 478.52V476.52H131.735L131.149 477.106L132.564 478.52ZM126.8 484.286V486.286H127.629L128.214 485.7L126.8 484.286ZM86.4546 484.286V482.286H84.4546V484.286H86.4546ZM86.4546 501.582L87.869 502.996L88.4546 502.41V501.582H86.4546ZM69.1637 518.878L70.5781 520.292L70.5781 520.292L69.1637 518.878ZM63.4 524.643V526.643H64.2286L64.8145 526.057L63.4 524.643ZM57.6364 524.643H55.6364V526.643H57.6364V524.643ZM57.6364 518.878H59.6364V518.049L59.0508 517.464L57.6364 518.878ZM51.8728 513.112L53.2872 511.698L52.7014 511.112H51.8728V513.112ZM40.3455 513.112V511.112H39.5169L38.9311 511.698L40.3455 513.112ZM34.5819 518.878L33.1674 517.464L32.5819 518.049V518.878H34.5819ZM34.5819 530.408L33.1674 531.822L36.5819 535.238V530.408H34.5819ZM28.8182 524.643H26.8182V525.471L27.4038 526.057L28.8182 524.643ZM28.8182 507.347L27.4038 505.933L26.8182 506.519V507.347H28.8182ZM34.5819 501.582L35.9963 502.996L36.5819 502.41V501.582H34.5819ZM34.5819 484.286L33.1674 482.872L32.5819 483.457V484.286H34.5819ZM40.3455 478.52L41.7599 479.934L42.3455 479.349V478.52H40.3455ZM40.3455 472.755H42.3455V471.927L41.7599 471.341L40.3455 472.755ZM34.5819 466.99H32.5819V467.818L33.1674 468.404L34.5819 466.99ZM34.5819 461.225H36.5819V459.225H34.5819V461.225ZM28.8182 461.225L27.4038 462.639L27.9896 463.225H28.8182V461.225ZM23.0546 455.459L24.469 454.045L24.469 454.045L23.0546 455.459ZM17.2909 449.694L18.7054 448.28L18.1195 447.694H17.2909V449.694ZM11.5273 449.694L10.1129 451.108L10.6987 451.694H11.5273V449.694ZM5.76367 443.929L4.34926 442.515L2.93565 443.929L4.34925 445.343L5.76367 443.929ZM11.5273 438.163L12.9417 439.577L13.5273 438.992V438.163H11.5273ZM11.5273 432.398L10.1129 430.984L9.52731 431.57V432.398H11.5273ZM17.2909 426.633L18.7054 428.047L19.2909 427.461V426.633H17.2909ZM17.2909 420.867L15.8765 419.453L15.2909 420.039V420.867H17.2909ZM28.8182 409.337V407.337H27.9896L27.4038 407.923L28.8182 409.337ZM40.3455 409.337V411.337H41.1741L41.7599 410.751L40.3455 409.337ZM46.1091 403.571V401.571H45.2805L44.6947 402.157L46.1091 403.571ZM57.6364 403.571V405.571H59.6364L59.6364 403.571L57.6364 403.571ZM57.6364 392.041L59.6364 392.041V392.041H57.6364ZM57.6364 363.214H59.6364V362.386L59.0508 361.8L57.6364 363.214ZM51.8728 357.449H49.8728V358.277L50.4584 358.863L51.8728 357.449ZM51.8728 340.153H53.8728V339.325L53.2872 338.739L51.8728 340.153ZM46.1091 334.388H44.1091V335.216L44.6947 335.802L46.1091 334.388ZM46.1091 322.857H48.1091V322.029L47.5235 321.443L46.1091 322.857ZM40.3455 317.092H38.3455V317.92L38.9311 318.506L40.3455 317.092ZM40.3455 305.561H42.3455V304.733L41.7599 304.147L40.3455 305.561ZM34.5819 299.796H32.5819V300.624L33.1674 301.21L34.5819 299.796ZM34.5819 276.735H36.5819V275.906L35.9963 275.321L34.5819 276.735ZM28.8182 270.969H26.8182V271.798L27.4038 272.383L28.8182 270.969ZM28.8182 259.439V257.439H26.8182V259.439H28.8182ZM34.5819 259.439L35.9963 258.025L35.4105 257.439H34.5819V259.439ZM40.3455 265.204L38.9311 266.618L39.5169 267.204H40.3455V265.204ZM51.8728 265.204V267.204H52.7014L53.2872 266.618L51.8728 265.204ZM57.6364 259.439V257.439H56.8078L56.222 258.025L57.6364 259.439ZM69.1637 259.439L70.5781 258.025L69.9923 257.439H69.1637V259.439ZM74.9273 265.204L73.5129 266.618L74.0987 267.204H74.9273V265.204ZM86.4546 265.204V267.204H87.2832L87.869 266.618L86.4546 265.204ZM92.2182 259.439V257.439H91.3896L90.8038 258.025L92.2182 259.439ZM97.9819 259.439V261.439H98.8104L99.3963 260.853L97.9819 259.439ZM103.745 253.673L105.16 252.259L103.745 250.845L102.331 252.259L103.745 253.673ZM109.509 259.439L108.095 260.853L109.509 262.268L110.924 260.853L109.509 259.439ZM115.273 253.673L116.687 255.087L117.273 254.502V253.673H115.273ZM115.273 242.143L113.858 240.729L113.273 241.315V242.143H115.273ZM121.036 236.378V234.378H120.208L119.622 234.964L121.036 236.378ZM132.564 236.378V238.378H133.392L133.978 237.792L132.564 236.378ZM144.091 224.847V222.847H143.262L142.677 223.433L144.091 224.847ZM149.855 224.847V226.847H150.683L151.269 226.261L149.855 224.847ZM155.618 219.082L157.033 217.668L155.618 216.253L154.204 217.668L155.618 219.082ZM161.382 224.847H163.382V224.019L162.796 223.433L161.382 224.847ZM161.382 230.612L162.755 232.067L163.382 231.475V230.612H161.382ZM155.272 236.378L153.9 234.923L152.358 236.378L153.9 237.832L155.272 236.378ZM161.382 242.143L160.009 243.597L160.587 244.143H161.382V242.143ZM167.145 242.143V244.143H167.974L168.56 243.557L167.145 242.143ZM172.909 236.378V234.378H172.081L171.495 234.964L172.909 236.378ZM178.673 236.378V238.378H180.673V236.378H178.673ZM178.673 224.847H180.673V224.019L180.087 223.433L178.673 224.847ZM172.909 219.082L174.324 217.668L173.738 217.082H172.909V219.082ZM167.145 219.082L165.731 220.496L166.317 221.082H167.145V219.082ZM161.382 213.316L159.967 211.902L158.554 213.316L159.967 214.73L161.382 213.316ZM167.145 207.551L168.56 208.965L169.145 208.379V207.551H167.145ZM167.145 196.02L165.731 194.606L165.145 195.192V196.02H167.145ZM172.909 190.255L174.324 191.669L174.909 191.083V190.255H172.909ZM172.909 167.194L171.495 165.78L170.909 166.366V167.194H172.909ZM178.673 161.429L180.087 162.843L180.673 162.257V161.429H178.673ZM178.673 155.663L177.258 154.249L176.673 154.835V155.663H178.673ZM184.436 149.898V147.898H183.608L183.022 148.484L184.436 149.898ZM195.964 149.898V151.898H196.792L197.378 151.312L195.964 149.898ZM201.727 144.133L200.313 142.719L200.313 142.719L201.727 144.133ZM207.491 138.367L208.905 139.781L209.491 139.196V138.367H207.491ZM207.491 132.602L206.077 131.188L205.491 131.774V132.602H207.491ZM213.255 126.837V124.837H212.426L211.84 125.423L213.255 126.837ZM236.309 126.837V128.837H238.309V126.837H236.309ZM236.309 121.071L234.895 119.657L234.309 120.243V121.071H236.309ZM242.073 115.306V113.306H241.244L240.658 113.892L242.073 115.306ZM247.836 115.306V117.306H252.664L249.251 113.892L247.836 115.306ZM242.073 109.541L243.487 108.127L242.901 107.541H242.073V109.541ZM224.782 109.541L223.367 110.955L223.953 111.541H224.782V109.541ZM219.018 103.776L217.604 102.361L216.19 103.776L217.604 105.19L219.018 103.776ZM224.782 98.0102L226.196 99.4242L226.782 98.8385V98.0102H224.782ZM224.782 86.4796L223.367 85.0656L222.782 85.6513V86.4796H224.782ZM230.545 80.7143L231.96 82.1283L232.545 81.5425V80.7143H230.545ZM230.545 69.1837V67.1837H228.545V69.1837H230.545ZM242.073 69.1837V71.1837H242.901L243.487 70.5977L242.073 69.1837ZM259.364 51.8877V49.8877H258.535L257.949 50.4737L259.364 51.8877ZM270.891 51.8877L272.305 50.4737L271.72 49.8877H270.891V51.8877ZM276.655 57.653L275.24 59.0671L275.826 59.653H276.655V57.653ZM293.945 57.653V59.653H295.945V57.653H293.945ZM293.945 46.1224L292.531 44.7084L291.945 45.2942V46.1224H293.945ZM299.709 40.3571V38.3571H298.881L298.295 38.9431L299.709 40.3571ZM305.473 40.3571V42.3571H306.301L306.887 41.7711L305.473 40.3571ZM311.236 34.5918L312.651 36.0058L313.236 35.4201V34.5918H311.236ZM311.236 28.8265L309.822 27.4125L309.236 27.9983V28.8265H311.236ZM322.764 17.2959V15.2959H321.935L321.349 15.8819L322.764 17.2959ZM334.291 17.2959H336.291V15.2959H334.291V17.2959ZM334.291 23.0612H332.291V23.8895L332.877 24.4752L334.291 23.0612ZM340.055 28.8265L338.64 30.2405L340.055 31.6553L341.469 30.2405L340.055 28.8265ZM345.818 23.0612V21.0612H344.99L344.404 21.6472L345.818 23.0612ZM363.109 23.0612H365.109V21.0612H363.109V23.0612ZM363.109 28.8265H361.109V29.6548L361.695 30.2405L363.109 28.8265ZM368.873 34.5918H370.873V33.7636L370.287 33.1778L368.873 34.5918ZM368.873 40.3571H366.873V42.3571H368.873V40.3571ZM374.636 40.3571V42.3571H375.465L376.051 41.7711L374.636 40.3571ZM386.164 28.8265V26.8265H385.335L384.749 27.4125L386.164 28.8265ZM391.927 28.8265L393.342 27.4125L392.756 26.8265H391.927V28.8265ZM397.691 34.5918L396.277 36.0058L396.862 36.5918H397.691V34.5918ZM409.218 34.5918L410.633 33.1778L410.047 32.5918H409.218V34.5918ZM414.982 40.3571H416.982V39.5289L416.396 38.9431L414.982 40.3571ZM414.982 46.1224L416.396 47.5364L416.982 46.9507V46.1224H414.982ZM409.218 51.8877L407.804 50.4737L407.218 51.0595V51.8877H409.218ZM409.218 57.653H407.218V58.4813L407.804 59.0671L409.218 57.653ZM414.982 63.4184L413.567 64.8324L414.153 65.4184H414.982V63.4184ZM420.745 63.4184V65.4184H421.574L422.16 64.8324L420.745 63.4184ZM426.509 57.653V55.653H425.681L425.095 56.239L426.509 57.653ZM438.036 57.653V59.653H438.865L439.451 59.0671L438.036 57.653ZM443.8 51.8877V49.8877H442.971L442.386 50.4737L443.8 51.8877ZM472.618 51.8877L474.033 50.4737L473.447 49.8877H472.618V51.8877ZM478.382 57.653L476.967 59.0671L477.553 59.653H478.382V57.653ZM484.145 57.653L485.56 56.239L484.974 55.653H484.145V57.653ZM495.673 69.1837H497.673V68.3554L497.087 67.7697L495.673 69.1837ZM495.673 74.949H493.673V75.7772L494.258 76.363L495.673 74.949ZM501.436 80.7143L500.022 82.1283L501.436 83.5431L502.851 82.1283L501.436 80.7143ZM507.2 74.949V72.949H506.371L505.786 73.535L507.2 74.949ZM512.964 74.949H514.964V72.949H512.964V74.949ZM512.964 98.0102L514.378 99.4242L514.964 98.8385V98.0102H512.964ZM507.2 103.776L505.786 102.361L505.2 102.947V103.776H507.2ZM507.2 115.306H505.2V116.134L505.786 116.72L507.2 115.306ZM512.964 121.071L511.549 122.485L511.549 122.485L512.964 121.071ZM518.727 126.837H520.727V126.008L520.142 125.423L518.727 126.837ZM518.727 138.367L520.142 139.781L520.727 139.196V138.367H518.727ZM512.964 144.133L511.549 142.719L510.964 143.304V144.133H512.964ZM512.964 149.898V151.898H514.964V149.898H512.964ZM507.2 149.898V147.898H505.2V149.898H507.2ZM507.2 155.663L508.614 157.077L509.2 156.492V155.663H507.2ZM501.436 161.429L500.022 160.015L499.436 160.6V161.429H501.436ZM501.436 167.194H499.436V168.022L500.022 168.608L501.436 167.194ZM507.2 172.959L505.786 174.373L506.371 174.959H507.2V172.959ZM512.964 172.959L514.378 171.545L513.792 170.959H512.964V172.959ZM530.255 176.724H518.727V180.724H530.255V176.724ZM532.255 190.255V178.724H528.255V190.255H532.255ZM525.905 197.434L531.669 191.669L528.84 188.841L523.077 194.606L525.905 197.434ZM526.491 201.786V196.02H522.491V201.786H526.491ZM530.255 199.786H524.491V203.786H530.255V199.786ZM537.433 206.137L531.669 200.372L528.84 203.2L534.604 208.965L537.433 206.137ZM538.018 224.847V207.551H534.018V224.847H538.018ZM538.018 230.612V224.847H534.018V230.612H538.018ZM541.782 228.612H536.018V232.612H541.782V228.612ZM554.724 240.729L543.196 229.198L540.367 232.026L551.895 243.557L554.724 240.729ZM559.073 240.143H553.309V244.143H559.073V240.143ZM566.251 246.494L560.487 240.729L557.658 243.557L563.422 249.322L566.251 246.494ZM570.6 245.908H564.836V249.908H570.6V245.908ZM572.6 265.204V247.908H568.6V265.204H572.6ZM566.251 272.383L572.014 266.618L569.186 263.79L563.422 269.555L566.251 272.383ZM572.014 275.321L566.251 269.555L563.422 272.383L569.186 278.149L572.014 275.321ZM576.364 274.735H570.6V278.735H576.364V274.735ZM593.655 274.735H576.364V278.735H593.655V274.735ZM600.833 281.086L595.069 275.321L592.24 278.149L598.004 283.914L600.833 281.086ZM605.182 280.5H599.418V284.5H605.182V280.5ZM612.36 286.851L606.596 281.086L603.767 283.914L609.531 289.679L612.36 286.851ZM612.946 299.796V288.265H608.946V299.796H612.946ZM623.887 309.913L612.36 298.382L609.531 301.21L621.058 312.741L623.887 309.913ZM628.236 309.327H622.473V313.327H628.236V309.327ZM630.236 322.857V311.327H626.236V322.857H630.236ZM606.596 347.332L629.651 324.271L626.822 321.443L603.767 344.504L606.596 347.332ZM595.069 358.863L606.596 347.332L603.767 344.504L592.24 356.035L595.069 358.863ZM576.364 359.449H593.655V355.449H576.364V359.449ZM563.422 347.332L574.949 358.863L577.778 356.035L566.251 344.504L563.422 347.332ZM559.073 347.918H564.836V343.918H559.073V347.918ZM547.546 347.918H559.073V343.918H547.546V347.918ZM543.196 353.098L548.96 347.332L546.131 344.504L540.367 350.27L543.196 353.098ZM543.782 357.449V351.684H539.782V357.449H543.782ZM537.433 364.628L543.196 358.863L540.367 356.035L534.604 361.8L537.433 364.628ZM538.018 368.98V363.214H534.018V368.98H538.018ZM548.96 379.096L537.433 367.566L534.604 370.394L546.131 381.924L548.96 379.096ZM549.545 386.276V380.51H545.545V386.276H549.545ZM554.724 390.627L548.96 384.862L546.131 387.69L551.895 393.455L554.724 390.627ZM555.309 403.571V392.041H551.309V403.571H555.309ZM555.309 409.337V403.571H551.309V409.337H555.309ZM560.487 413.688L554.724 407.923L551.895 410.751L557.658 416.516L560.487 413.688ZM554.724 422.281L560.487 416.516L557.658 413.688L551.895 419.453L554.724 422.281ZM555.309 438.163V420.867H551.309V438.163H555.309ZM566.251 448.28L554.724 436.749L551.895 439.577L563.422 451.108L566.251 448.28ZM566.836 455.459V449.694H562.836V455.459H566.836ZM572.014 459.81L566.251 454.045L563.422 456.873L569.186 462.639L572.014 459.81ZM572.6 466.99V461.225H568.6V466.99H572.6ZM559.073 468.99H570.6V464.99H559.073V468.99ZM551.895 462.639L557.658 468.404L560.487 465.576L554.724 459.81L551.895 462.639ZM541.782 463.225H553.309V459.225H541.782V463.225ZM537.433 468.404L543.196 462.639L540.367 459.81L534.604 465.576L537.433 468.404ZM538.018 472.755V466.99H534.018V472.755H538.018ZM530.255 474.755H536.018V470.755H530.255V474.755ZM523.077 468.404L528.84 474.169L531.669 471.341L525.905 465.576L523.077 468.404ZM512.964 468.99H524.491V464.99H512.964V468.99ZM514.964 472.755V466.99H510.964V472.755H514.964ZM497.087 491.465L514.378 474.169L511.549 471.341L494.258 488.637L497.087 491.465ZM497.673 501.582V490.051H493.673V501.582H497.673ZM491.324 508.761L497.087 502.996L494.258 500.168L488.495 505.933L491.324 508.761ZM491.909 513.112V507.347H487.909V513.112H491.909ZM485.56 520.292L491.324 514.526L488.495 511.698L482.731 517.464L485.56 520.292ZM486.145 524.643V518.878H482.145V524.643H486.145ZM491.324 528.994L485.56 523.229L482.731 526.057L488.495 531.822L491.324 528.994ZM491.909 553.469V530.408H487.909V553.469H491.909ZM485.56 560.649L491.324 554.883L488.495 552.055L482.731 557.821L485.56 560.649ZM471.204 549.118L482.731 560.649L485.56 557.821L474.033 546.29L471.204 549.118ZM470.618 541.939V547.704H474.618V541.939H470.618ZM459.677 531.822L471.204 543.353L474.033 540.525L462.505 528.994L459.677 531.822ZM455.327 532.408H461.091V528.408H455.327V532.408ZM450.978 537.587L456.742 531.822L453.913 528.994L448.149 534.759L450.978 537.587ZM438.036 538.173H449.564V534.173H438.036V538.173ZM430.858 531.822L436.622 537.587L439.451 534.759L433.687 528.994L430.858 531.822ZM426.509 532.408H432.273V528.408H426.509V532.408ZM416.396 543.353L427.924 531.822L425.095 528.994L413.567 540.525L416.396 543.353ZM403.455 543.939H414.982V539.939H403.455V543.939ZM401.455 530.408V541.939H405.455V530.408H401.455ZM396.277 526.057L402.04 531.822L404.869 528.994L399.105 523.229L396.277 526.057ZM395.691 513.112V524.643H399.691V513.112H395.691ZM391.927 515.112H397.691V511.112H391.927V515.112ZM393.927 518.878V513.112H389.927V518.878H393.927ZM387.578 526.057L393.342 520.292L390.513 517.464L384.749 523.229L387.578 526.057ZM380.4 526.643H386.164V522.643H380.4V526.643ZM376.051 531.822L381.814 526.057L378.986 523.229L373.222 528.994L376.051 531.822ZM376.636 541.939V530.408H372.636V541.939H376.636ZM368.873 543.939H374.636V539.939H368.873V543.939ZM361.695 537.587L367.458 543.353L370.287 540.525L364.524 534.759L361.695 537.587ZM361.109 524.643V536.173H365.109V524.643H361.109ZM351.582 526.643H363.109V522.643H351.582V526.643ZM345.818 526.643H351.582V522.643H345.818V526.643ZM338.64 520.292L344.404 526.057L347.233 523.229L341.469 517.464L338.64 520.292ZM338.055 513.112V518.878H342.055V513.112H338.055ZM334.291 515.112H340.055V511.112H334.291V515.112ZM324.178 526.057L335.705 514.526L332.877 511.698L321.349 523.229L324.178 526.057ZM311.236 526.643H322.764V522.643H311.236V526.643ZM306.887 531.822L312.651 526.057L309.822 523.229L304.058 528.994L306.887 531.822ZM299.709 532.408H305.473V528.408H299.709V532.408ZM297.709 518.878V530.408H301.709V518.878H297.709ZM288.182 520.878H299.709V516.878H288.182V520.878ZM276.655 520.878H288.182V516.878H276.655V520.878ZM269.477 514.526L275.24 520.292L278.069 517.464L272.305 511.698L269.477 514.526ZM268.891 507.347V513.112H272.891V507.347H268.891ZM263.713 502.996L269.477 508.761L272.305 505.933L266.542 500.168L263.713 502.996ZM242.073 503.582H265.127V499.582H242.073V503.582ZM234.895 497.23L240.658 502.996L243.487 500.168L237.724 494.402L234.895 497.23ZM224.782 497.816H236.309V493.816H224.782V497.816ZM217.604 491.465L223.367 497.23L226.196 494.402L220.433 488.637L217.604 491.465ZM201.727 492.051H219.018V488.051H201.727V492.051ZM194.549 485.7L200.313 491.465L203.142 488.637L197.378 482.872L194.549 485.7ZM178.673 486.286H195.964V482.286H178.673V486.286ZM171.495 479.934L177.258 485.7L180.087 482.872L174.324 477.106L171.495 479.934ZM168.56 485.7L174.324 479.934L171.495 477.106L165.731 482.872L168.56 485.7ZM149.855 486.286H167.145V482.286H149.855V486.286ZM142.677 479.934L148.44 485.7L151.269 482.872L145.505 477.106L142.677 479.934ZM132.564 480.52H144.091V476.52H132.564V480.52ZM128.214 485.7L133.978 479.934L131.149 477.106L125.386 482.872L128.214 485.7ZM109.509 486.286H126.8V482.286H109.509V486.286ZM86.4546 486.286H109.509V482.286H86.4546V486.286ZM88.4546 501.582V484.286H84.4546V501.582H88.4546ZM70.5781 520.292L87.869 502.996L85.0402 500.168L67.7493 517.464L70.5781 520.292ZM64.8145 526.057L70.5781 520.292L67.7493 517.464L61.9856 523.229L64.8145 526.057ZM57.6364 526.643H63.4V522.643H57.6364V526.643ZM55.6364 518.878V524.643H59.6364V518.878H55.6364ZM50.4583 514.526L56.222 520.292L59.0508 517.464L53.2872 511.698L50.4583 514.526ZM46.1091 515.112H51.8728V511.112H46.1091V515.112ZM40.3455 515.112H46.1091V511.112H40.3455V515.112ZM35.9963 520.292L41.7599 514.526L38.9311 511.698L33.1674 517.464L35.9963 520.292ZM36.5819 530.408V518.878H32.5819V530.408H36.5819ZM27.4038 526.057L33.1674 531.822L35.9963 528.994L30.2326 523.229L27.4038 526.057ZM26.8182 507.347V524.643H30.8182V507.347H26.8182ZM33.1674 500.168L27.4038 505.933L30.2326 508.761L35.9963 502.996L33.1674 500.168ZM32.5819 484.286V501.582H36.5819V484.286H32.5819ZM38.9311 477.106L33.1674 482.872L35.9963 485.7L41.7599 479.934L38.9311 477.106ZM38.3455 472.755V478.52H42.3455V472.755H38.3455ZM33.1674 468.404L38.9311 474.169L41.7599 471.341L35.9963 465.576L33.1674 468.404ZM32.5819 461.225V466.99H36.5819V461.225H32.5819ZM28.8182 463.225H34.5819V459.225H28.8182V463.225ZM21.6402 456.873L27.4038 462.639L30.2326 459.811L24.469 454.045L21.6402 456.873ZM15.8765 451.108L21.6402 456.873L24.469 454.045L18.7054 448.28L15.8765 451.108ZM11.5273 451.694H17.2909V447.694H11.5273V451.694ZM4.34925 445.343L10.1129 451.108L12.9417 448.28L7.17809 442.515L4.34925 445.343ZM10.1129 436.749L4.34926 442.515L7.17809 445.343L12.9417 439.577L10.1129 436.749ZM9.52731 432.398V438.163H13.5273V432.398H9.52731ZM15.8765 425.219L10.1129 430.984L12.9417 433.812L18.7054 428.047L15.8765 425.219ZM15.2909 420.867V426.633H19.2909V420.867H15.2909ZM27.4038 407.923L15.8765 419.453L18.7054 422.281L30.2326 410.751L27.4038 407.923ZM40.3455 407.337H28.8182V411.337H40.3455V407.337ZM44.6947 402.157L38.9311 407.923L41.7599 410.751L47.5235 404.985L44.6947 402.157ZM57.6364 401.571H46.1091V405.571H57.6364V401.571ZM55.6364 392.041L55.6364 403.571L59.6364 403.571L59.6364 392.041L55.6364 392.041ZM55.6364 363.214V392.041H59.6364V363.214H55.6364ZM50.4584 358.863L56.222 364.628L59.0508 361.8L53.2872 356.035L50.4584 358.863ZM49.8728 340.153V357.449H53.8728V340.153H49.8728ZM44.6947 335.802L50.4584 341.567L53.2872 338.739L47.5235 332.974L44.6947 335.802ZM44.1091 328.622V334.388H48.1091V328.622H44.1091ZM44.1091 322.857V328.622H48.1091V322.857H44.1091ZM38.9311 318.506L44.6947 324.271L47.5235 321.443L41.7599 315.678L38.9311 318.506ZM38.3455 305.561V317.092H42.3455V305.561H38.3455ZM33.1674 301.21L38.9311 306.975L41.7599 304.147L35.9963 298.382L33.1674 301.21ZM32.5819 276.735V299.796H36.5819V276.735H32.5819ZM27.4038 272.383L33.1674 278.149L35.9963 275.321L30.2326 269.555L27.4038 272.383ZM26.8182 259.439V270.969H30.8182V259.439H26.8182ZM34.5819 257.439H28.8182V261.439H34.5819V257.439ZM41.7599 263.79L35.9963 258.025L33.1674 260.853L38.9311 266.618L41.7599 263.79ZM51.8728 263.204H40.3455V267.204H51.8728V263.204ZM56.222 258.025L50.4583 263.79L53.2872 266.618L59.0508 260.853L56.222 258.025ZM69.1637 257.439H57.6364V261.439H69.1637V257.439ZM76.3417 263.79L70.5781 258.025L67.7493 260.853L73.5129 266.618L76.3417 263.79ZM86.4546 263.204H74.9273V267.204H86.4546V263.204ZM90.8038 258.025L85.0402 263.79L87.869 266.618L93.6326 260.853L90.8038 258.025ZM97.9819 257.439H92.2182V261.439H97.9819V257.439ZM102.331 252.259L96.5674 258.025L99.3963 260.853L105.16 255.087L102.331 252.259ZM110.924 258.025L105.16 252.259L102.331 255.087L108.095 260.853L110.924 258.025ZM113.858 252.259L108.095 258.025L110.924 260.853L116.687 255.087L113.858 252.259ZM113.273 242.143V253.673H117.273V242.143H113.273ZM119.622 234.964L113.858 240.729L116.687 243.557L122.451 237.792L119.622 234.964ZM132.564 234.378H121.036V238.378H132.564V234.378ZM142.677 223.433L131.149 234.964L133.978 237.792L145.505 226.261L142.677 223.433ZM149.855 222.847H144.091V226.847H149.855V222.847ZM154.204 217.668L148.44 223.433L151.269 226.261L157.033 220.496L154.204 217.668ZM162.796 223.433L157.033 217.668L154.204 220.496L159.967 226.261L162.796 223.433ZM163.382 230.612V224.847H159.382V230.612H163.382ZM156.645 237.832L162.755 232.067L160.009 229.158L153.9 234.923L156.645 237.832ZM162.755 240.688L156.645 234.923L153.9 237.832L160.009 243.597L162.755 240.688ZM167.145 240.143H161.382V244.143H167.145V240.143ZM171.495 234.964L165.731 240.729L168.56 243.557L174.324 237.792L171.495 234.964ZM178.673 234.378H172.909V238.378H178.673V234.378ZM176.673 230.612V236.378H180.673V230.612H176.673ZM176.673 224.847V230.612H180.673V224.847H176.673ZM171.495 220.496L177.258 226.261L180.087 223.433L174.324 217.668L171.495 220.496ZM167.145 221.082H172.909V217.082H167.145V221.082ZM159.967 214.73L165.731 220.496L168.56 217.668L162.796 211.902L159.967 214.73ZM165.731 206.137L159.967 211.902L162.796 214.73L168.56 208.965L165.731 206.137ZM165.145 196.02V207.551H169.145V196.02H165.145ZM171.495 188.841L165.731 194.606L168.56 197.434L174.324 191.669L171.495 188.841ZM170.909 167.194V190.255H174.909V167.194H170.909ZM177.258 160.015L171.495 165.78L174.324 168.608L180.087 162.843L177.258 160.015ZM176.673 155.663V161.429H180.673V155.663H176.673ZM183.022 148.484L177.258 154.249L180.087 157.077L185.851 151.312L183.022 148.484ZM195.964 147.898H184.436V151.898H195.964V147.898ZM200.313 142.719L194.549 148.484L197.378 151.312L203.142 145.547L200.313 142.719ZM206.077 136.953L200.313 142.719L203.142 145.547L208.905 139.781L206.077 136.953ZM205.491 132.602V138.367H209.491V132.602H205.491ZM211.84 125.423L206.077 131.188L208.905 134.016L214.669 128.251L211.84 125.423ZM236.309 124.837H213.255V128.837H236.309V124.837ZM234.309 121.071V126.837H238.309V121.071H234.309ZM240.658 113.892L234.895 119.657L237.724 122.485L243.487 116.72L240.658 113.892ZM247.836 113.306H242.073V117.306H247.836V113.306ZM240.658 110.955L246.422 116.72L249.251 113.892L243.487 108.127L240.658 110.955ZM224.782 111.541H242.073V107.541H224.782V111.541ZM217.604 105.19L223.367 110.955L226.196 108.127L220.433 102.361L217.604 105.19ZM223.367 96.5962L217.604 102.361L220.433 105.19L226.196 99.4242L223.367 96.5962ZM222.782 86.4796V98.0102H226.782V86.4796H222.782ZM229.131 79.3003L223.367 85.0656L226.196 87.8936L231.96 82.1283L229.131 79.3003ZM228.545 69.1837V80.7143H232.545V69.1837H228.545ZM242.073 67.1837H230.545V71.1837H242.073V67.1837ZM257.949 50.4737L240.658 67.7697L243.487 70.5977L260.778 53.3017L257.949 50.4737ZM270.891 49.8877H259.364V53.8877H270.891V49.8877ZM278.069 56.239L272.305 50.4737L269.477 53.3017L275.24 59.0671L278.069 56.239ZM288.182 55.653H276.655V59.653H288.182V55.653ZM293.945 55.653H288.182V59.653H293.945V55.653ZM291.945 46.1224V57.653H295.945V46.1224H291.945ZM298.295 38.9431L292.531 44.7084L295.36 47.5364L301.124 41.7711L298.295 38.9431ZM305.473 38.3571H299.709V42.3571H305.473V38.3571ZM309.822 33.1778L304.058 38.9431L306.887 41.7711L312.651 36.0058L309.822 33.1778ZM309.236 28.8265V34.5918H313.236V28.8265H309.236ZM321.349 15.8819L309.822 27.4125L312.651 30.2405L324.178 18.7099L321.349 15.8819ZM334.291 15.2959H322.764V19.2959H334.291V15.2959ZM336.291 23.0612V17.2959H332.291V23.0612H336.291ZM341.469 27.4125L335.705 21.6472L332.877 24.4752L338.64 30.2405L341.469 27.4125ZM344.404 21.6472L338.64 27.4125L341.469 30.2405L347.233 24.4752L344.404 21.6472ZM351.582 21.0612H345.818V25.0612H351.582V21.0612ZM363.109 21.0612H351.582V25.0612H363.109V21.0612ZM365.109 28.8265V23.0612H361.109V28.8265H365.109ZM370.287 33.1778L364.524 27.4125L361.695 30.2405L367.458 36.0058L370.287 33.1778ZM370.873 40.3571V34.5918H366.873V40.3571H370.873ZM374.636 38.3571H368.873V42.3571H374.636V38.3571ZM384.749 27.4125L373.222 38.9431L376.051 41.7711L387.578 30.2405L384.749 27.4125ZM391.927 26.8265H386.164V30.8265H391.927V26.8265ZM399.105 33.1778L393.342 27.4125L390.513 30.2405L396.277 36.0058L399.105 33.1778ZM409.218 32.5918H397.691V36.5918H409.218V32.5918ZM416.396 38.9431L410.633 33.1778L407.804 36.0058L413.567 41.7711L416.396 38.9431ZM416.982 46.1224V40.3571H412.982V46.1224H416.982ZM410.633 53.3017L416.396 47.5364L413.567 44.7084L407.804 50.4737L410.633 53.3017ZM411.218 57.653V51.8877H407.218V57.653H411.218ZM416.396 62.0043L410.633 56.239L407.804 59.0671L413.567 64.8324L416.396 62.0043ZM420.745 61.4184H414.982V65.4184H420.745V61.4184ZM425.095 56.239L419.331 62.0043L422.16 64.8324L427.924 59.0671L425.095 56.239ZM438.036 55.653H426.509V59.653H438.036V55.653ZM442.386 50.4737L436.622 56.239L439.451 59.0671L445.214 53.3017L442.386 50.4737ZM472.618 49.8877H443.8V53.8877H472.618V49.8877ZM479.796 56.239L474.033 50.4737L471.204 53.3017L476.967 59.0671L479.796 56.239ZM484.145 55.653H478.382V59.653H484.145V55.653ZM497.087 67.7697L485.56 56.239L482.731 59.0671L494.258 70.5977L497.087 67.7697ZM497.673 74.949V69.1837H493.673V74.949H497.673ZM502.851 79.3003L497.087 73.535L494.258 76.363L500.022 82.1283L502.851 79.3003ZM505.786 73.535L500.022 79.3003L502.851 82.1283L508.614 76.363L505.786 73.535ZM512.964 72.949H507.2V76.949H512.964V72.949ZM514.964 98.0102V74.949H510.964V98.0102H514.964ZM508.614 105.19L514.378 99.4242L511.549 96.5962L505.786 102.361L508.614 105.19ZM509.2 115.306V103.776H505.2V115.306H509.2ZM514.378 119.657L508.614 113.892L505.786 116.72L511.549 122.485L514.378 119.657ZM520.142 125.423L514.378 119.657L511.549 122.485L517.313 128.251L520.142 125.423ZM520.727 138.367V126.837H516.727V138.367H520.727ZM514.378 145.547L520.142 139.781L517.313 136.953L511.549 142.719L514.378 145.547ZM514.964 149.898V144.133H510.964V149.898H514.964ZM507.2 151.898H512.964V147.898H507.2V151.898ZM509.2 155.663V149.898H505.2V155.663H509.2ZM502.851 162.843L508.614 157.077L505.786 154.249L500.022 160.015L502.851 162.843ZM503.436 167.194V161.429H499.436V167.194H503.436ZM508.614 171.545L502.851 165.78L500.022 168.608L505.786 174.373L508.614 171.545ZM512.964 170.959H507.2V174.959H512.964V170.959ZM520.142 177.31L514.378 171.545L511.549 174.373L517.313 180.139L520.142 177.31Z" fill="#AD4AD5" mask="url(#path-119-inside-1_21_341)"/>
<path d="M472.618 269.816C475.165 269.816 477.229 267.751 477.229 265.204C477.229 262.657 475.165 260.592 472.618 260.592C470.072 260.592 468.007 262.657 468.007 265.204C468.007 267.751 470.072 269.816 472.618 269.816Z" fill="white" fill-opacity="0.15"/>
<path d="M40.3455 471.602C42.8921 471.602 44.9564 469.537 44.9564 466.99C44.9564 464.442 42.8921 462.377 40.3455 462.377C37.799 462.377 35.7346 464.442 35.7346 466.99C35.7346 469.537 37.799 471.602 40.3455 471.602Z" fill="white" fill-opacity="0.15"/>
<path d="M461.091 131.449C463.637 131.449 465.702 129.384 465.702 126.837C465.702 124.29 463.637 122.225 461.091 122.225C458.544 122.225 456.48 124.29 456.48 126.837C456.48 129.384 458.544 131.449 461.091 131.449Z" fill="white" fill-opacity="0.15"/>
<path d="M518.727 437.01C521.274 437.01 523.338 434.945 523.338 432.398C523.338 429.851 521.274 427.786 518.727 427.786C516.181 427.786 514.116 429.851 514.116 432.398C514.116 434.945 516.181 437.01 518.727 437.01Z" fill="white" fill-opacity="0.15"/>
<path d="M46.1092 292.878C48.6557 292.878 50.7201 290.813 50.7201 288.266C50.7201 285.718 48.6557 283.653 46.1092 283.653C43.5627 283.653 41.4983 285.718 41.4983 288.266C41.4983 290.813 43.5627 292.878 46.1092 292.878Z" fill="white" fill-opacity="0.15"/>
<path d="M291.64 275.582C296.733 275.582 300.862 271.452 300.862 266.357C300.862 261.263 296.733 257.133 291.64 257.133C286.547 257.133 282.418 261.263 282.418 266.357C282.418 271.452 286.547 275.582 291.64 275.582Z" fill="white"/>
<rect x="216" y="216.5" width="159" height="89" stroke="white"/>
<path d="M374.5 305.5H216L187 362.5H344.5" stroke="white"/>
<rect x="229.5" y="227" width="134" height="70" fill="#00EE5F"/>
<circle cx="234" cy="230.5" r="1.5" fill="white"/>
<circle cx="239" cy="230.5" r="1.4" stroke="#27282C" stroke-width="0.2"/>
<circle cx="244" cy="230.5" r="1.5" fill="#27282C"/>
<path d="M283 250L252.5 270.5H282.5" stroke="#27282C"/>
<rect x="261.5" y="259.039" width="9" height="4" transform="rotate(-34.0457 261.5 259.039)" fill="white"/>
<rect x="300.5" y="243" width="21" height="21" fill="#27282C"/>
<circle cx="323.5" cy="267" r="17" fill="white"/>
</svg>
