<svg width="109" height="173" viewBox="0 0 109 173" fill="none" xmlns="http://www.w3.org/2000/svg">
<path d="M0.5 0.5V172.5H108.5V0.5H0.5Z" stroke="white"/>
<circle cx="54" cy="156" r="8" fill="white"/>
<rect x="11" y="12" width="87" height="124" fill="#00EE5F"/>
<circle cx="21.5" cy="36.5" r="3.35" fill="white" stroke="black" stroke-width="0.3"/>
<circle cx="21.5" cy="26.5" r="3.35" fill="white" stroke="black" stroke-width="0.3"/>
<circle cx="21.5" cy="46.5" r="3.35" fill="white" stroke="black" stroke-width="0.3"/>
<circle cx="21.5" cy="56.5" r="3.35" fill="white" stroke="black" stroke-width="0.3"/>
<circle cx="21.5" cy="66.5" r="3.35" fill="white" stroke="black" stroke-width="0.3"/>
<circle cx="21.5" cy="76.5" r="3.35" fill="white" stroke="black" stroke-width="0.3"/>
<circle cx="21.5" cy="86.5" r="3.35" fill="white" stroke="black" stroke-width="0.3"/>
<circle cx="21.5" cy="96.5" r="3.35" fill="white" stroke="black" stroke-width="0.3"/>
<rect x="19" y="115" width="70" height="12" rx="2" fill="#27282C"/>
<rect x="29.15" y="23.15" width="18.7" height="6.7" rx="1.85" stroke="#27282C" stroke-width="0.3"/>
<rect x="29.15" y="33.15" width="18.7" height="6.7" rx="1.85" stroke="#27282C" stroke-width="0.3"/>
<rect x="29.15" y="43.15" width="18.7" height="6.7" rx="1.85" stroke="#27282C" stroke-width="0.3"/>
<rect x="29.15" y="53.15" width="18.7" height="6.7" rx="1.85" stroke="#27282C" stroke-width="0.3"/>
<rect x="29.15" y="63.15" width="18.7" height="6.7" rx="1.85" stroke="#27282C" stroke-width="0.3"/>
<rect x="29.15" y="73.15" width="18.7" height="6.7" rx="1.85" stroke="#27282C" stroke-width="0.3"/>
<rect x="29.15" y="83.15" width="18.7" height="6.7" rx="1.85" stroke="#27282C" stroke-width="0.3"/>
<rect x="29.15" y="93.15" width="18.7" height="6.7" rx="1.85" stroke="#27282C" stroke-width="0.3"/>
</svg>
