<svg width="919" height="48" viewBox="0 0 919 48" fill="none" xmlns="http://www.w3.org/2000/svg">
<path d="M0 1C29.5 1 19 47 46 47C73 47 69 1 92 1C115 1 113.5 47 138 47C162.5 47 154.5 1 184 1" stroke="black"/>
<path d="M367.5 1C397 1 386.5 47 413.5 47C440.5 47 436.5 1 459.5 1C482.5 1 481 47 505.5 47C530 47 522 1 551.5 1" stroke="black"/>
<path d="M734.5 1C764 1 753.5 47 780.5 47C807.5 47 803.5 1 826.5 1C849.5 1 848 47 872.5 47C897 47 889 1 918.5 1" stroke="black"/>
<path d="M183.5 1C213 1 202.5 47 229.5 47C256.5 47 252.5 1 275.5 1C298.5 1 297 47 321.5 47C346 47 338 1 367.5 1" stroke="black"/>
<path d="M551 1C580.5 1 570 47 597 47C624 47 620 1 643 1C666 1 664.5 47 689 47C713.5 47 705.5 1 735 1" stroke="black"/>
</svg>
