<svg width="343" height="128" viewBox="0 0 343 128" fill="none" xmlns="http://www.w3.org/2000/svg">
<rect width="343" height="128" fill="#27282C"/>
<rect x="35" y="63" width="274" height="2" fill="#AD4AD5"/>
<path d="M317.707 64.7071C318.098 64.3166 318.098 63.6834 317.707 63.2929L311.343 56.9289C310.953 56.5384 310.319 56.5384 309.929 56.9289C309.538 57.3195 309.538 57.9526 309.929 58.3431L315.586 64L309.929 69.6569C309.538 70.0474 309.538 70.6805 309.929 71.0711C310.319 71.4616 310.953 71.4616 311.343 71.0711L317.707 64.7071ZM309 65L317 65L317 63L309 63L309 65Z" fill="#AD4AD5"/>
<path d="M313.048 81L315.94 77.208L315.904 78.24L313.132 74.544H315.232L316.984 76.956L316.192 76.98L318.004 74.544H319.996L317.212 78.204V77.196L320.092 81H317.968L316.132 78.432L316.912 78.54L315.088 81H313.048Z" fill="#00EE5F"/>
<path d="M87.624 77.372V75.872H91.02V77.372H87.624ZM91.8257 80V78.74L95.0657 75.68C95.3217 75.448 95.5097 75.24 95.6297 75.056C95.7497 74.872 95.8297 74.704 95.8697 74.552C95.9177 74.4 95.9417 74.26 95.9417 74.132C95.9417 73.796 95.8257 73.54 95.5937 73.364C95.3697 73.18 95.0377 73.088 94.5977 73.088C94.2457 73.088 93.9177 73.156 93.6137 73.292C93.3177 73.428 93.0657 73.64 92.8577 73.928L91.4417 73.016C91.7617 72.536 92.2097 72.156 92.7857 71.876C93.3617 71.596 94.0257 71.456 94.7777 71.456C95.4017 71.456 95.9457 71.56 96.4097 71.768C96.8817 71.968 97.2457 72.252 97.5017 72.62C97.7657 72.988 97.8977 73.428 97.8977 73.94C97.8977 74.212 97.8617 74.484 97.7897 74.756C97.7257 75.02 97.5897 75.3 97.3817 75.596C97.1817 75.892 96.8857 76.224 96.4937 76.592L93.8057 79.124L93.4337 78.416H98.1737V80H91.8257Z" fill="#00EE5F"/>
<path d="M240.624 77.372V75.872H244.02V77.372H240.624ZM246.135 80V72.32L246.975 73.16H244.455V71.6H248.079V80H246.135ZM250.642 80.096C250.322 80.096 250.046 79.988 249.814 79.772C249.59 79.548 249.478 79.264 249.478 78.92C249.478 78.576 249.59 78.3 249.814 78.092C250.046 77.876 250.322 77.768 250.642 77.768C250.97 77.768 251.246 77.876 251.47 78.092C251.694 78.3 251.806 78.576 251.806 78.92C251.806 79.264 251.694 79.548 251.47 79.772C251.246 79.988 250.97 80.096 250.642 80.096ZM252.724 80V78.74L255.964 75.68C256.22 75.448 256.408 75.24 256.528 75.056C256.648 74.872 256.728 74.704 256.768 74.552C256.816 74.4 256.84 74.26 256.84 74.132C256.84 73.796 256.724 73.54 256.492 73.364C256.268 73.18 255.936 73.088 255.496 73.088C255.144 73.088 254.816 73.156 254.512 73.292C254.216 73.428 253.964 73.64 253.756 73.928L252.34 73.016C252.66 72.536 253.108 72.156 253.684 71.876C254.26 71.596 254.924 71.456 255.676 71.456C256.3 71.456 256.844 71.56 257.308 71.768C257.78 71.968 258.144 72.252 258.4 72.62C258.664 72.988 258.796 73.428 258.796 73.94C258.796 74.212 258.76 74.484 258.688 74.756C258.624 75.02 258.488 75.3 258.28 75.596C258.08 75.892 257.784 76.224 257.392 76.592L254.704 79.124L254.332 78.416H259.072V80H252.724Z" fill="#00EE5F"/>
<circle cx="95" cy="64" r="3.5" stroke="#00EE5F"/>
<circle cx="250" cy="64" r="3.5" fill="#00EE5F" stroke="#00EE5F"/>
<rect x="95" y="53" width="155" height="10" fill="url(#paint0_linear_306_4)"/>
<defs>
<linearGradient id="paint0_linear_306_4" x1="172.5" y1="53" x2="172.5" y2="63" gradientUnits="userSpaceOnUse">
<stop stop-color="#D9D9D9"/>
<stop offset="1" stop-color="#D9D9D9" stop-opacity="0"/>
</linearGradient>
</defs>
</svg>
