<svg width="24" height="42" viewBox="0 0 24 42" fill="none" xmlns="http://www.w3.org/2000/svg">
<g clip-path="url(#clip0_2_34)">
<path d="M3 40.483L20.4545 40.483L20.4545 33.5966C20.4545 32.2784 20.2188 31.1534 19.7472 30.2216C19.2812 29.2841 18.6193 28.571 17.7614 28.0824C16.9091 27.5881 15.9063 27.3409 14.7528 27.3409C13.5937 27.3409 12.5966 27.5909 11.7614 28.0909C10.9318 28.5909 10.2955 29.3153 9.85227 30.2642C9.40909 31.2074 9.1875 32.3494 9.1875 33.6903L9.1875 38.3011L12.1534 38.3011L12.1534 34.2869C12.1534 33.5824 12.25 32.9972 12.4432 32.5313C12.6364 32.0653 12.9261 31.7188 13.3125 31.4915C13.6989 31.2585 14.179 31.142 14.7528 31.142C15.3324 31.142 15.821 31.2585 16.2187 31.4915C16.6165 31.7187 16.9176 32.0682 17.1222 32.5398C17.3324 33.0057 17.4375 33.5937 17.4375 34.304L17.4375 36.7926L3 36.7926L3 40.483ZM10.9432 31.0568L3 26.7188L3 30.7926L10.9432 35.0369L10.9432 31.0568Z" fill="#A047C4"/>
<path d="M21 14.483L3.54545 14.483L3.54545 7.59659C3.54545 6.27841 3.78125 5.15341 4.25284 4.22159C4.71875 3.28409 5.38068 2.57102 6.23864 2.08239C7.09091 1.58807 8.09375 1.34091 9.24716 1.34091C10.4062 1.34091 11.4034 1.59091 12.2386 2.09091C13.0682 2.59091 13.7045 3.31534 14.1477 4.2642C14.5909 5.20739 14.8125 6.34943 14.8125 7.69034L14.8125 12.3011L11.8466 12.3011L11.8466 8.28693C11.8466 7.58239 11.75 6.99716 11.5568 6.53125C11.3636 6.06534 11.0739 5.71875 10.6875 5.49148C10.3011 5.25852 9.82102 5.14205 9.24716 5.14205C8.66761 5.14205 8.17898 5.25852 7.78125 5.49148C7.38352 5.71875 7.08239 6.06818 6.87784 6.53977C6.66761 7.00568 6.5625 7.59375 6.5625 8.30398L6.5625 10.7926L21 10.7926L21 14.483ZM13.0568 5.05682L21 0.71875L21 4.79261L13.0568 9.03693L13.0568 5.05682Z" fill="#A047C4"/>
<circle cx="12" cy="21" r="2" fill="#00EE5F"/>
</g>
<defs>
<clipPath id="clip0_2_34">
<rect width="24" height="42" fill="white"/>
</clipPath>
</defs>
</svg>
