<svg width="343" height="128" viewBox="0 0 343 128" fill="none" xmlns="http://www.w3.org/2000/svg">
<rect width="343" height="128" fill="#27282C"/>
<rect x="35" y="63" width="274" height="2" fill="#AD4AD5"/>
<path d="M317.707 64.7071C318.098 64.3166 318.098 63.6834 317.707 63.2929L311.343 56.9289C310.953 56.5384 310.319 56.5384 309.929 56.9289C309.538 57.3195 309.538 57.9526 309.929 58.3431L315.586 64L309.929 69.6569C309.538 70.0474 309.538 70.6805 309.929 71.0711C310.319 71.4616 310.953 71.4616 311.343 71.0711L317.707 64.7071ZM309 65L317 65L317 63L309 63L309 65Z" fill="#AD4AD5"/>
<path d="M313.048 81L315.94 77.208L315.904 78.24L313.132 74.544H315.232L316.984 76.956L316.192 76.98L318.004 74.544H319.996L317.212 78.204V77.196L320.092 81H317.968L316.132 78.432L316.912 78.54L315.088 81H313.048Z" fill="#00EE5F"/>
<path d="M87.624 77.372V75.872H91.02V77.372H87.624ZM91.8257 80V78.74L95.0657 75.68C95.3217 75.448 95.5097 75.24 95.6297 75.056C95.7497 74.872 95.8297 74.704 95.8697 74.552C95.9177 74.4 95.9417 74.26 95.9417 74.132C95.9417 73.796 95.8257 73.54 95.5937 73.364C95.3697 73.18 95.0377 73.088 94.5977 73.088C94.2457 73.088 93.9177 73.156 93.6137 73.292C93.3177 73.428 93.0657 73.64 92.8577 73.928L91.4417 73.016C91.7617 72.536 92.2097 72.156 92.7857 71.876C93.3617 71.596 94.0257 71.456 94.7777 71.456C95.4017 71.456 95.9457 71.56 96.4097 71.768C96.8817 71.968 97.2457 72.252 97.5017 72.62C97.7657 72.988 97.8977 73.428 97.8977 73.94C97.8977 74.212 97.8617 74.484 97.7897 74.756C97.7257 75.02 97.5897 75.3 97.3817 75.596C97.1817 75.892 96.8857 76.224 96.4937 76.592L93.8057 79.124L93.4337 78.416H98.1737V80H91.8257Z" fill="#00EE5F"/>
<path d="M243.764 80V72.32L244.604 73.16H242.084V71.6H245.708V80H243.764ZM248.271 80.096C247.951 80.096 247.675 79.988 247.443 79.772C247.219 79.548 247.107 79.264 247.107 78.92C247.107 78.576 247.219 78.3 247.443 78.092C247.675 77.876 247.951 77.768 248.271 77.768C248.599 77.768 248.875 77.876 249.099 78.092C249.323 78.3 249.435 78.576 249.435 78.92C249.435 79.264 249.323 79.548 249.099 79.772C248.875 79.988 248.599 80.096 248.271 80.096ZM250.353 80V78.74L253.593 75.68C253.849 75.448 254.037 75.24 254.157 75.056C254.277 74.872 254.357 74.704 254.397 74.552C254.445 74.4 254.469 74.26 254.469 74.132C254.469 73.796 254.353 73.54 254.121 73.364C253.897 73.18 253.565 73.088 253.125 73.088C252.773 73.088 252.445 73.156 252.141 73.292C251.845 73.428 251.593 73.64 251.385 73.928L249.969 73.016C250.289 72.536 250.737 72.156 251.313 71.876C251.889 71.596 252.553 71.456 253.305 71.456C253.929 71.456 254.473 71.56 254.937 71.768C255.409 71.968 255.773 72.252 256.029 72.62C256.293 72.988 256.425 73.428 256.425 73.94C256.425 74.212 256.389 74.484 256.317 74.756C256.253 75.02 256.117 75.3 255.909 75.596C255.709 75.892 255.413 76.224 255.021 76.592L252.333 79.124L251.961 78.416H256.701V80H250.353Z" fill="#00EE5F"/>
<circle cx="95" cy="64" r="3.5" stroke="#00EE5F"/>
<circle cx="250" cy="64" r="3.5" fill="#00EE5F" stroke="#00EE5F"/>
<rect x="95" y="53" width="155" height="10" fill="url(#paint0_linear_308_26)"/>
<defs>
<linearGradient id="paint0_linear_308_26" x1="172.5" y1="53" x2="172.5" y2="63" gradientUnits="userSpaceOnUse">
<stop stop-color="#D9D9D9"/>
<stop offset="1" stop-color="#D9D9D9" stop-opacity="0"/>
</linearGradient>
</defs>
</svg>
