<svg width="24" height="42" viewBox="0 0 24 42" fill="none" xmlns="http://www.w3.org/2000/svg">
<g clip-path="url(#clip0_2_8)">
<path d="M3 1.51704L20.4545 1.51705L20.4545 8.40341C20.4545 9.72159 20.2188 10.8466 19.7472 11.7784C19.2812 12.7159 18.6193 13.429 17.7614 13.9176C16.9091 14.4119 15.9063 14.6591 14.7528 14.6591C13.5937 14.6591 12.5966 14.4091 11.7614 13.9091C10.9318 13.4091 10.2955 12.6847 9.85227 11.7358C9.40909 10.7926 9.1875 9.65057 9.1875 8.30966L9.1875 3.69886L12.1534 3.69886L12.1534 7.71307C12.1534 8.41761 12.25 9.00284 12.4432 9.46875C12.6364 9.93466 12.9261 10.2812 13.3125 10.5085C13.6989 10.7415 14.179 10.858 14.7528 10.858C15.3324 10.858 15.821 10.7415 16.2187 10.5085C16.6165 10.2813 16.9176 9.93182 17.1222 9.46023C17.3324 8.99432 17.4375 8.40625 17.4375 7.69602L17.4375 5.20739L3 5.20739L3 1.51704ZM10.9432 10.9432L3 15.2812L3 11.2074L10.9432 6.96307L10.9432 10.9432Z" fill="#A047C4"/>
<path d="M21 40.483L3.54545 40.483L3.54545 33.5966C3.54545 32.2784 3.78125 31.1534 4.25284 30.2216C4.71875 29.2841 5.38068 28.571 6.23864 28.0824C7.09091 27.5881 8.09375 27.3409 9.24716 27.3409C10.4062 27.3409 11.4034 27.5909 12.2386 28.0909C13.0682 28.5909 13.7045 29.3153 14.1477 30.2642C14.5909 31.2074 14.8125 32.3494 14.8125 33.6903L14.8125 38.3011L11.8466 38.3011L11.8466 34.2869C11.8466 33.5824 11.75 32.9972 11.5568 32.5313C11.3636 32.0653 11.0739 31.7187 10.6875 31.4915C10.3011 31.2585 9.82102 31.142 9.24716 31.142C8.66761 31.142 8.17898 31.2585 7.78125 31.4915C7.38352 31.7187 7.08239 32.0682 6.87784 32.5398C6.66761 33.0057 6.5625 33.5937 6.5625 34.304L6.5625 36.7926L21 36.7926L21 40.483ZM13.0568 31.0568L21 26.7188L21 30.7926L13.0568 35.0369L13.0568 31.0568Z" fill="#A047C4"/>
<circle cx="12" cy="21" r="2" fill="#00EE5F"/>
</g>
<defs>
<clipPath id="clip0_2_8">
<rect width="24" height="42" fill="white"/>
</clipPath>
</defs>
</svg>
