<svg width="24" height="42" viewBox="0 0 24 42" fill="none" xmlns="http://www.w3.org/2000/svg">
<g clip-path="url(#clip0_2_39)">
<path d="M21 27.517L3.54545 27.517L3.54545 34.4034C3.54545 35.7216 3.78125 36.8466 4.25284 37.7784C4.71875 38.7159 5.38068 39.429 6.23864 39.9176C7.09091 40.4119 8.09375 40.6591 9.24716 40.6591C10.4063 40.6591 11.4034 40.4091 12.2386 39.9091C13.0682 39.4091 13.7045 38.6847 14.1477 37.7358C14.5909 36.7926 14.8125 35.6506 14.8125 34.3097L14.8125 29.6989L11.8466 29.6989L11.8466 33.7131C11.8466 34.4176 11.75 35.0028 11.5568 35.4687C11.3636 35.9347 11.0739 36.2812 10.6875 36.5085C10.3011 36.7415 9.82102 36.858 9.24716 36.858C8.66761 36.858 8.17898 36.7415 7.78125 36.5085C7.38352 36.2813 7.08239 35.9318 6.87784 35.4602C6.66761 34.9943 6.5625 34.4063 6.5625 33.696L6.5625 31.2074L21 31.2074L21 27.517ZM13.0568 36.9432L21 41.2812L21 37.2074L13.0568 32.9631L13.0568 36.9432Z" fill="#A047C4"/>
<path d="M21 14.483L3.54545 14.483L3.54545 7.59659C3.54545 6.27841 3.78125 5.15341 4.25284 4.22159C4.71875 3.28409 5.38068 2.57102 6.23864 2.08239C7.09091 1.58807 8.09375 1.34091 9.24716 1.34091C10.4062 1.34091 11.4034 1.59091 12.2386 2.09091C13.0682 2.59091 13.7045 3.31534 14.1477 4.2642C14.5909 5.20739 14.8125 6.34943 14.8125 7.69034L14.8125 12.3011L11.8466 12.3011L11.8466 8.28693C11.8466 7.58239 11.75 6.99716 11.5568 6.53125C11.3636 6.06534 11.0739 5.71875 10.6875 5.49148C10.3011 5.25852 9.82102 5.14205 9.24716 5.14205C8.66761 5.14205 8.17898 5.25852 7.78125 5.49148C7.38352 5.71875 7.08239 6.06818 6.87784 6.53977C6.66761 7.00568 6.5625 7.59375 6.5625 8.30398L6.5625 10.7926L21 10.7926L21 14.483ZM13.0568 5.05682L21 0.71875L21 4.79261L13.0568 9.03693L13.0568 5.05682Z" fill="#A047C4"/>
<circle cx="12" cy="21" r="2" fill="#00EE5F"/>
</g>
<defs>
<clipPath id="clip0_2_39">
<rect width="24" height="42" fill="white"/>
</clipPath>
</defs>
</svg>
