<svg width="343" height="128" viewBox="0 0 343 128" fill="none" xmlns="http://www.w3.org/2000/svg">
<rect width="343" height="128" fill="#27282C"/>
<rect x="35" y="63" width="274" height="2" fill="#AD4AD5"/>
<path d="M317.707 64.7071C318.098 64.3166 318.098 63.6834 317.707 63.2929L311.343 56.9289C310.953 56.5384 310.319 56.5384 309.929 56.9289C309.538 57.3195 309.538 57.9526 309.929 58.3431L315.586 64L309.929 69.6569C309.538 70.0474 309.538 70.6805 309.929 71.0711C310.319 71.4616 310.953 71.4616 311.343 71.0711L317.707 64.7071ZM309 65L317 65L317 63L309 63L309 65Z" fill="#AD4AD5"/>
<path d="M313.048 81L315.94 77.208L315.904 78.24L313.132 74.544H315.232L316.984 76.956L316.192 76.98L318.004 74.544H319.996L317.212 78.204V77.196L320.092 81H317.968L316.132 78.432L316.912 78.54L315.088 81H313.048Z" fill="#00EE5F"/>
<path d="M85.624 77.372V75.872H89.02V77.372H85.624ZM91.1351 80V72.32L91.9751 73.16H89.4551V71.6H93.0791V80H91.1351ZM95.6423 80.096C95.3223 80.096 95.0463 79.988 94.8143 79.772C94.5903 79.548 94.4783 79.264 94.4783 78.92C94.4783 78.576 94.5903 78.3 94.8143 78.092C95.0463 77.876 95.3223 77.768 95.6423 77.768C95.9703 77.768 96.2463 77.876 96.4703 78.092C96.6943 78.3 96.8063 78.576 96.8063 78.92C96.8063 79.264 96.6943 79.548 96.4703 79.772C96.2463 79.988 95.9703 80.096 95.6423 80.096ZM97.7241 80V78.74L100.964 75.68C101.22 75.448 101.408 75.24 101.528 75.056C101.648 74.872 101.728 74.704 101.768 74.552C101.816 74.4 101.84 74.26 101.84 74.132C101.84 73.796 101.724 73.54 101.492 73.364C101.268 73.18 100.936 73.088 100.496 73.088C100.144 73.088 99.8161 73.156 99.5121 73.292C99.2161 73.428 98.9641 73.64 98.7561 73.928L97.3401 73.016C97.6601 72.536 98.1081 72.156 98.6841 71.876C99.2601 71.596 99.9241 71.456 100.676 71.456C101.3 71.456 101.844 71.56 102.308 71.768C102.78 71.968 103.144 72.252 103.4 72.62C103.664 72.988 103.796 73.428 103.796 73.94C103.796 74.212 103.76 74.484 103.688 74.756C103.624 75.02 103.488 75.3 103.28 75.596C103.08 75.892 102.784 76.224 102.392 76.592L99.7041 79.124L99.3321 78.416H104.072V80H97.7241Z" fill="#00EE5F"/>
<path d="M246.396 80V78.74L249.636 75.68C249.892 75.448 250.08 75.24 250.2 75.056C250.32 74.872 250.4 74.704 250.44 74.552C250.488 74.4 250.512 74.26 250.512 74.132C250.512 73.796 250.396 73.54 250.164 73.364C249.94 73.18 249.608 73.088 249.168 73.088C248.816 73.088 248.488 73.156 248.184 73.292C247.888 73.428 247.636 73.64 247.428 73.928L246.012 73.016C246.332 72.536 246.78 72.156 247.356 71.876C247.932 71.596 248.596 71.456 249.348 71.456C249.972 71.456 250.516 71.56 250.98 71.768C251.452 71.968 251.816 72.252 252.072 72.62C252.336 72.988 252.468 73.428 252.468 73.94C252.468 74.212 252.432 74.484 252.36 74.756C252.296 75.02 252.16 75.3 251.952 75.596C251.752 75.892 251.456 76.224 251.064 76.592L248.376 79.124L248.004 78.416H252.744V80H246.396Z" fill="#00EE5F"/>
<circle cx="95" cy="64" r="3.5" fill="#00EE5F" stroke="#00EE5F"/>
<circle cx="250" cy="64" r="3.5" stroke="#00EE5F"/>
<rect x="95" y="53" width="155" height="10" fill="url(#paint0_linear_308_35)"/>
<defs>
<linearGradient id="paint0_linear_308_35" x1="172.5" y1="53" x2="172.5" y2="63" gradientUnits="userSpaceOnUse">
<stop stop-color="#D9D9D9"/>
<stop offset="1" stop-color="#D9D9D9" stop-opacity="0"/>
</linearGradient>
</defs>
</svg>
