<svg width="24" height="42" viewBox="0 0 24 42" fill="none" xmlns="http://www.w3.org/2000/svg">
<g clip-path="url(#clip0_2_29)">
<path d="M21 1.51704L3.54545 1.51705L3.54545 8.40341C3.54545 9.72159 3.78125 10.8466 4.25284 11.7784C4.71875 12.7159 5.38068 13.429 6.23864 13.9176C7.09091 14.4119 8.09375 14.6591 9.24716 14.6591C10.4063 14.6591 11.4034 14.4091 12.2386 13.9091C13.0682 13.4091 13.7045 12.6847 14.1477 11.7358C14.5909 10.7926 14.8125 9.65057 14.8125 8.30966L14.8125 3.69886L11.8466 3.69886L11.8466 7.71307C11.8466 8.41761 11.75 9.00284 11.5568 9.46875C11.3636 9.93466 11.0739 10.2812 10.6875 10.5085C10.3011 10.7415 9.82102 10.858 9.24716 10.858C8.66761 10.858 8.17898 10.7415 7.78125 10.5085C7.38352 10.2813 7.08239 9.93182 6.87784 9.46023C6.66761 8.99432 6.5625 8.40625 6.5625 7.69602L6.5625 5.20739L21 5.20739L21 1.51704ZM13.0568 10.9432L21 15.2812L21 11.2074L13.0568 6.96307L13.0568 10.9432Z" fill="#A047C4"/>
<path d="M21 27.517L3.54545 27.517L3.54545 34.4034C3.54545 35.7216 3.78125 36.8466 4.25284 37.7784C4.71875 38.7159 5.38068 39.429 6.23864 39.9176C7.09091 40.4119 8.09375 40.6591 9.24716 40.6591C10.4063 40.6591 11.4034 40.4091 12.2386 39.9091C13.0682 39.4091 13.7045 38.6847 14.1477 37.7358C14.5909 36.7926 14.8125 35.6506 14.8125 34.3097L14.8125 29.6989L11.8466 29.6989L11.8466 33.7131C11.8466 34.4176 11.75 35.0028 11.5568 35.4687C11.3636 35.9347 11.0739 36.2812 10.6875 36.5085C10.3011 36.7415 9.82102 36.858 9.24716 36.858C8.66761 36.858 8.17898 36.7415 7.78125 36.5085C7.38352 36.2813 7.08239 35.9318 6.87784 35.4602C6.66761 34.9943 6.5625 34.4063 6.5625 33.696L6.5625 31.2074L21 31.2074L21 27.517ZM13.0568 36.9432L21 41.2812L21 37.2074L13.0568 32.9631L13.0568 36.9432Z" fill="#A047C4"/>
<circle cx="12" cy="21" r="2" fill="#00EE5F"/>
</g>
<defs>
<clipPath id="clip0_2_29">
<rect width="24" height="42" fill="white"/>
</clipPath>
</defs>
</svg>
