<svg width="343" height="128" viewBox="0 0 343 128" fill="none" xmlns="http://www.w3.org/2000/svg">
<rect width="343" height="128" fill="#27282C"/>
<rect x="35" y="63" width="274" height="2" fill="#AD4AD5"/>
<path d="M317.707 64.7071C318.098 64.3166 318.098 63.6834 317.707 63.2929L311.343 56.9289C310.953 56.5384 310.319 56.5384 309.929 56.9289C309.538 57.3195 309.538 57.9526 309.929 58.3431L315.586 64L309.929 69.6569C309.538 70.0474 309.538 70.6805 309.929 71.0711C310.319 71.4616 310.953 71.4616 311.343 71.0711L317.707 64.7071ZM309 65L317 65L317 63L309 63L309 65Z" fill="#AD4AD5"/>
<path d="M313.048 81L315.94 77.208L315.904 78.24L313.132 74.544H315.232L316.984 76.956L316.192 76.98L318.004 74.544H319.996L317.212 78.204V77.196L320.092 81H317.968L316.132 78.432L316.912 78.54L315.088 81H313.048Z" fill="#00EE5F"/>
<path d="M88.764 80V72.32L89.604 73.16H87.084V71.6H90.708V80H88.764ZM93.2712 80.096C92.9512 80.096 92.6752 79.988 92.4432 79.772C92.2192 79.548 92.1072 79.264 92.1072 78.92C92.1072 78.576 92.2192 78.3 92.4432 78.092C92.6752 77.876 92.9512 77.768 93.2712 77.768C93.5992 77.768 93.8752 77.876 94.0992 78.092C94.3232 78.3 94.4352 78.576 94.4352 78.92C94.4352 79.264 94.3232 79.548 94.0992 79.772C93.8752 79.988 93.5992 80.096 93.2712 80.096ZM95.353 80V78.74L98.593 75.68C98.849 75.448 99.037 75.24 99.157 75.056C99.277 74.872 99.357 74.704 99.397 74.552C99.445 74.4 99.469 74.26 99.469 74.132C99.469 73.796 99.353 73.54 99.121 73.364C98.897 73.18 98.565 73.088 98.125 73.088C97.773 73.088 97.445 73.156 97.141 73.292C96.845 73.428 96.593 73.64 96.385 73.928L94.969 73.016C95.289 72.536 95.737 72.156 96.313 71.876C96.889 71.596 97.553 71.456 98.305 71.456C98.929 71.456 99.473 71.56 99.937 71.768C100.409 71.968 100.773 72.252 101.029 72.62C101.293 72.988 101.425 73.428 101.425 73.94C101.425 74.212 101.389 74.484 101.317 74.756C101.253 75.02 101.117 75.3 100.909 75.596C100.709 75.892 100.413 76.224 100.021 76.592L97.333 79.124L96.961 78.416H101.701V80H95.353Z" fill="#00EE5F"/>
<path d="M246.396 80V78.74L249.636 75.68C249.892 75.448 250.08 75.24 250.2 75.056C250.32 74.872 250.4 74.704 250.44 74.552C250.488 74.4 250.512 74.26 250.512 74.132C250.512 73.796 250.396 73.54 250.164 73.364C249.94 73.18 249.608 73.088 249.168 73.088C248.816 73.088 248.488 73.156 248.184 73.292C247.888 73.428 247.636 73.64 247.428 73.928L246.012 73.016C246.332 72.536 246.78 72.156 247.356 71.876C247.932 71.596 248.596 71.456 249.348 71.456C249.972 71.456 250.516 71.56 250.98 71.768C251.452 71.968 251.816 72.252 252.072 72.62C252.336 72.988 252.468 73.428 252.468 73.94C252.468 74.212 252.432 74.484 252.36 74.756C252.296 75.02 252.16 75.3 251.952 75.596C251.752 75.892 251.456 76.224 251.064 76.592L248.376 79.124L248.004 78.416H252.744V80H246.396Z" fill="#00EE5F"/>
<circle cx="95" cy="64" r="3.5" fill="#00EE5F" stroke="#00EE5F"/>
<circle cx="250" cy="64" r="3.5" stroke="#00EE5F"/>
<rect x="95" y="53" width="155" height="10" fill="url(#paint0_linear_308_44)"/>
<defs>
<linearGradient id="paint0_linear_308_44" x1="172.5" y1="53" x2="172.5" y2="63" gradientUnits="userSpaceOnUse">
<stop stop-color="#D9D9D9"/>
<stop offset="1" stop-color="#D9D9D9" stop-opacity="0"/>
</linearGradient>
</defs>
</svg>
