<svg width="24" height="42" viewBox="0 0 24 42" fill="none" xmlns="http://www.w3.org/2000/svg">
<g clip-path="url(#clip0_2_20)">
<path d="M3 40.483L20.4545 40.483L20.4545 33.5966C20.4545 32.2784 20.2188 31.1534 19.7472 30.2216C19.2813 29.2841 18.6193 28.571 17.7614 28.0824C16.9091 27.5881 15.9063 27.3409 14.7528 27.3409C13.5938 27.3409 12.5966 27.5909 11.7614 28.0909C10.9318 28.5909 10.2955 29.3153 9.85227 30.2642C9.40909 31.2074 9.1875 32.3494 9.1875 33.6903L9.1875 38.3011L12.1534 38.3011L12.1534 34.2869C12.1534 33.5824 12.25 32.9972 12.4432 32.5312C12.6364 32.0653 12.9261 31.7187 13.3125 31.4915C13.6989 31.2585 14.179 31.142 14.7528 31.142C15.3324 31.142 15.821 31.2585 16.2188 31.4915C16.6165 31.7187 16.9176 32.0682 17.1222 32.5398C17.3324 33.0057 17.4375 33.5937 17.4375 34.304L17.4375 36.7926L3 36.7926L3 40.483ZM10.9432 31.0568L3 26.7187L3 30.7926L10.9432 35.0369L10.9432 31.0568Z" fill="#A047C4"/>
<path d="M3 14.483L20.4545 14.483L20.4545 7.59659C20.4545 6.27841 20.2188 5.15341 19.7472 4.22159C19.2813 3.28409 18.6193 2.57102 17.7614 2.08239C16.9091 1.58807 15.9063 1.34091 14.7528 1.34091C13.5938 1.34091 12.5966 1.59091 11.7614 2.09091C10.9318 2.59091 10.2955 3.31534 9.85227 4.2642C9.40909 5.20739 9.1875 6.34943 9.1875 7.69034L9.1875 12.3011L12.1534 12.3011L12.1534 8.28693C12.1534 7.58239 12.25 6.99716 12.4432 6.53125C12.6364 6.06534 12.9261 5.71875 13.3125 5.49148C13.6989 5.25852 14.179 5.14205 14.7528 5.14205C15.3324 5.14205 15.821 5.25852 16.2188 5.49148C16.6165 5.71875 16.9176 6.06818 17.1222 6.53977C17.3324 7.00568 17.4375 7.59375 17.4375 8.30398L17.4375 10.7926L3 10.7926L3 14.483ZM10.9432 5.05682L3 0.71875L3 4.79261L10.9432 9.03693L10.9432 5.05682Z" fill="#A047C4"/>
<circle cx="12" cy="21" r="2" fill="#00EE5F"/>
</g>
<defs>
<clipPath id="clip0_2_20">
<rect width="24" height="42" fill="white"/>
</clipPath>
</defs>
</svg>
